  0
SECTION
  2
HEADER
  9
$ACADVER
  1
AC1014
  9
$HANDSEED
  5
FFFF
  9
$MEASUREMENT
 70
     1
  0
ENDSEC
  0
SECTION
  2
TABLES
  0
TABLE
  2
VPORT
  5
8
330
0
100
AcDbSymbolTable
 70
     4
  0
VPORT
  5
2E
330
8
100
AcDbSymbolTableRecord
100
AcDbViewportTableRecord
  2
*ACTIVE
 70
     0
 10
0.0
 20
0.0
 11
1.0
 21
1.0
 12
210.0
 22
148.5
 13
0.0
 23
0.0
 14
10.0
 24
10.0
 15
10.0
 25
10.0
 16
0.0
 26
0.0
 36
1.0
 17
0.0
 27
0.0
 37
0.0
 40
341.0
 41
1.24
 42
50.0
 43
0.0
 44
0.0
 50
0.0
 51
0.0
 71
     0
 72
   100
 73
     1
 74
     3
 75
     0
 76
     0
 77
     0
 78
     0
  0
ENDTAB
  0
TABLE
  2
LTYPE
  5
5
330
0
100
AcDbSymbolTable
 70
     1
  0
LTYPE
  5
14
330
5
100
AcDbSymbolTableRecord
100
AcDbLinetypeTableRecord
  2
BYBLOCK
 70
     0
  3

 72
    65
 73
     0
 40
0.0
  0
LTYPE
  5
15
330
5
100
AcDbSymbolTableRecord
100
AcDbLinetypeTableRecord
  2
BYLAYER
 70
     0
  3

 72
    65
 73
     0
 40
0.0
  0
LTYPE
  5
16
330
5
100
AcDbSymbolTableRecord
100
AcDbLinetypeTableRecord
  2
CONTINUOUS
 70
     0
  3
Solid line
 72
    65
 73
     0
 40
0.0
  0
ENDTAB
  0
TABLE
  2
LAYER
  5
2
100
AcDbSymbolTable
 70
4
  0
LAYER
  5
50
100
AcDbSymbolTableRecord
100
AcDbLayerTableRecord
  2
0
 70
0
  6
CONTINUOUS
  0
LAYER
  5
51
100
AcDbSymbolTableRecord
100
AcDbLayerTableRecord
  2
mfos_vco_VI_panel_2
 70
0
  6
CONTINUOUS
  0
LAYER
  5
52
100
AcDbSymbolTableRecord
100
AcDbLayerTableRecord
  2
holes
 70
0
  6
CONTINUOUS
  0
LAYER
  5
53
100
AcDbSymbolTableRecord
100
AcDbLayerTableRecord
  2
text
 70
0
  6
CONTINUOUS
  0
ENDTAB
  0
TABLE
  2
STYLE
  5
3
330
0
100
AcDbSymbolTable
 70
     1
  0
STYLE
  5
11
330
3
100
AcDbSymbolTableRecord
100
AcDbTextStyleTableRecord
  2
STANDARD
 70
     0
 40
0.0
 41
1.0
 50
0.0
 71
     0
 42
2.5
  3
txt
  4

  0
ENDTAB
  0
TABLE
  2
VIEW
  5
6
330
0
100
AcDbSymbolTable
 70
     0
  0
ENDTAB
  0
TABLE
  2
UCS
  5
7
330
0
100
AcDbSymbolTable
 70
     0
  0
ENDTAB
  0
TABLE
  2
APPID
  5
9
330
0
100
AcDbSymbolTable
 70
     2
  0
APPID
  5
12
330
9
100
AcDbSymbolTableRecord
100
AcDbRegAppTableRecord
  2
ACAD
 70
     0
  0
ENDTAB
  0
TABLE
  2
DIMSTYLE
  5
A
330
0
100
AcDbSymbolTable
 70
     1
  0
DIMSTYLE
105
27
330
A
100
AcDbSymbolTableRecord
100
AcDbDimStyleTableRecord
  2
ISO-25
 70
     0
  3

  4

  5

  6

  7

 40
1.0
 41
2.5
 42
0.625
 43
3.75
 44
1.25
 45
0.0
 46
0.0
 47
0.0
 48
0.0
140
2.5
141
2.5
142
0.0
143
0.03937007874016
144
1.0
145
0.0
146
1.0
147
0.625
 71
     0
 72
     0
 73
     0
 74
     0
 75
     0
 76
     0
 77
     1
 78
     8
170
     0
171
     3
172
     1
173
     0
174
     0
175
     0
176
     0
177
     0
178
     0
270
     2
271
     2
272
     2
273
     2
274
     3
340
11
275
     0
280
     0
281
     0
282
     0
283
     0
284
     8
285
     0
286
     0
287
     3
288
     0
  0
ENDTAB
  0
TABLE
  2
BLOCK_RECORD
  5
1
330
0
100
AcDbSymbolTable
 70
     1
  0
BLOCK_RECORD
  5
1F
330
1
100
AcDbSymbolTableRecord
100
AcDbBlockTableRecord
  2
*MODEL_SPACE
  0
BLOCK_RECORD
  5
1B
330
1
100
AcDbSymbolTableRecord
100
AcDbBlockTableRecord
  2
*PAPER_SPACE
  0
ENDTAB
  0
ENDSEC
  0
SECTION
  2
BLOCKS
  0
BLOCK
  5
20
330
1F
100
AcDbEntity
  8
0
100
AcDbBlockBegin
  2
*MODEL_SPACE
 70
     0
 10
0.0
 20
0.0
 30
0.0
  3
*MODEL_SPACE
  1

  0
ENDBLK
  5
21
330
1F
100
AcDbEntity
  8
0
100
AcDbBlockEnd
  0
BLOCK
  5
1C
330
1B
100
AcDbEntity
 67
     1
  8
0
100
AcDbBlockBegin
  2
*PAPER_SPACE
  1

  0
ENDBLK
  5
1D
330
1B
100
AcDbEntity
 67
     1
  8
0
100
AcDbBlockEnd
  0
ENDSEC
  0
SECTION
  2
ENTITIES
  0
LWPOLYLINE
  5
100
100
AcDbEntity
  8
text
 62
5
100
AcDbPolyline
 90
5
 70
1
 10
2.631688
 20
275.112630
 30
0.0
 10
108.897905
 20
275.112630
 30
0.0
 10
108.897905
 20
136.442910
 30
0.0
 10
2.631688
 20
136.442910
 30
0.0
 10
2.631688
 20
275.112630
 30
0.0
  0
SPLINE
  5
101
100
AcDbEntity
  8
text
 62
1
100
AcDbSpline
 70
8
 71
3
 72
8
 73
4
 74
0
 40
0
 40
0
 40
0
 40
0
 40
1
 40
1
 40
1
 40
1
 10
18.307197
 20
267.610118
 30
0.0
 10
18.307396
 20
267.524257
 30
0.0
 10
18.257123
 20
267.444841
 30
0.0
 10
18.175363
 20
267.401859
 30
0.0
  0
SPLINE
  5
102
100
AcDbEntity
  8
text
 62
1
100
AcDbSpline
 70
8
 71
3
 72
8
 73
4
 74
0
 40
0
 40
0
 40
0
 40
0
 40
1
 40
1
 40
1
 40
1
 10
18.175363
 20
267.401859
 30
0.0
 10
18.093603
 20
267.358876
 30
0.0
 10
17.992813
 20
267.358876
 30
0.0
 10
17.911052
 20
267.401859
 30
0.0
  0
SPLINE
  5
103
100
AcDbEntity
  8
text
 62
1
100
AcDbSpline
 70
8
 71
3
 72
8
 73
4
 74
0
 40
0
 40
0
 40
0
 40
0
 40
1
 40
1
 40
1
 40
1
 10
17.911052
 20
267.401859
 30
0.0
 10
17.829292
 20
267.444841
 30
0.0
 10
17.779020
 20
267.524257
 30
0.0
 10
17.779218
 20
267.610118
 30
0.0
  0
SPLINE
  5
104
100
AcDbEntity
  8
text
 62
1
100
AcDbSpline
 70
8
 71
3
 72
8
 73
4
 74
0
 40
0
 40
0
 40
0
 40
0
 40
1
 40
1
 40
1
 40
1
 10
17.779218
 20
267.610118
 30
0.0
 10
17.779020
 20
267.695978
 30
0.0
 10
17.829292
 20
267.775394
 30
0.0
 10
17.911052
 20
267.818376
 30
0.0
  0
SPLINE
  5
105
100
AcDbEntity
  8
text
 62
1
100
AcDbSpline
 70
8
 71
3
 72
8
 73
4
 74
0
 40
0
 40
0
 40
0
 40
0
 40
1
 40
1
 40
1
 40
1
 10
17.911052
 20
267.818376
 30
0.0
 10
17.992813
 20
267.861359
 30
0.0
 10
18.093603
 20
267.861359
 30
0.0
 10
18.175363
 20
267.818376
 30
0.0
  0
SPLINE
  5
106
100
AcDbEntity
  8
text
 62
1
100
AcDbSpline
 70
8
 71
3
 72
8
 73
4
 74
0
 40
0
 40
0
 40
0
 40
0
 40
1
 40
1
 40
1
 40
1
 10
18.175363
 20
267.818376
 30
0.0
 10
18.257123
 20
267.775394
 30
0.0
 10
18.307396
 20
267.695978
 30
0.0
 10
18.307197
 20
267.610118
 30
0.0
  0
LWPOLYLINE
  5
107
100
AcDbEntity
  8
text
 62
7
100
AcDbPolyline
 90
6
 70
0
 10
42.990224
 20
142.670922
 30
0.0
 10
9.353990
 20
142.670922
 30
0.0
 10
9.353990
 20
270.827687
 30
0.0
 10
102.490171
 20
270.827687
 30
0.0
 10
102.490171
 20
142.670922
 30
0.0
 10
9.353990
 20
142.670922
 30
0.0
  0
LWPOLYLINE
  5
108
100
AcDbEntity
  8
text
 62
1
100
AcDbPolyline
 90
2
 70
1
 10
18.307197
 20
267.610118
 30
0.0
 10
18.307197
 20
267.610118
 30
0.0
  0
LWPOLYLINE
  5
109
100
AcDbEntity
  8
text
 62
1
100
AcDbPolyline
 90
2
 70
0
 10
83.616549
 20
190.689896
 30
0.0
 10
79.161914
 20
182.671539
 30
0.0
  0
LWPOLYLINE
  5
10a
100
AcDbEntity
  8
text
 62
1
100
AcDbPolyline
 90
2
 70
0
 10
83.616549
 20
190.689896
 30
0.0
 10
75.420020
 20
186.591634
 30
0.0
  0
LWPOLYLINE
  5
10b
100
AcDbEntity
  8
text
 62
1
100
AcDbPolyline
 90
2
 70
0
 10
83.616549
 20
190.689896
 30
0.0
 10
74.529095
 20
191.759010
 30
0.0
  0
LWPOLYLINE
  5
10c
100
AcDbEntity
  8
text
 62
1
100
AcDbPolyline
 90
2
 70
0
 10
83.616549
 20
190.689896
 30
0.0
 10
76.667318
 20
196.570024
 30
0.0
  0
LWPOLYLINE
  5
10d
100
AcDbEntity
  8
text
 62
1
100
AcDbPolyline
 90
2
 70
0
 10
83.616549
 20
190.689896
 30
0.0
 10
81.121953
 20
199.420977
 30
0.0
  0
LWPOLYLINE
  5
10e
100
AcDbEntity
  8
text
 62
1
100
AcDbPolyline
 90
2
 70
0
 10
83.616549
 20
190.689896
 30
0.0
 10
86.111142
 20
199.420977
 30
0.0
  0
LWPOLYLINE
  5
10f
100
AcDbEntity
  8
text
 62
1
100
AcDbPolyline
 90
2
 70
0
 10
83.616549
 20
190.689896
 30
0.0
 10
90.565777
 20
196.570024
 30
0.0
  0
LWPOLYLINE
  5
110
100
AcDbEntity
  8
text
 62
1
100
AcDbPolyline
 90
2
 70
0
 10
83.616549
 20
190.689896
 30
0.0
 10
92.704003
 20
191.759010
 30
0.0
  0
LWPOLYLINE
  5
111
100
AcDbEntity
  8
text
 62
1
100
AcDbPolyline
 90
2
 70
0
 10
83.616549
 20
190.689896
 30
0.0
 10
91.813075
 20
186.591634
 30
0.0
  0
LWPOLYLINE
  5
112
100
AcDbEntity
  8
text
 62
1
100
AcDbPolyline
 90
2
 70
0
 10
83.616549
 20
190.689896
 30
0.0
 10
88.249368
 20
182.671539
 30
0.0
  0
LWPOLYLINE
  5
113
100
AcDbEntity
  8
text
 62
1
100
AcDbPolyline
 90
2
 70
0
 10
83.616549
 20
190.689896
 30
0.0
 10
79.696471
 20
183.740654
 30
0.0
  0
LWPOLYLINE
  5
114
100
AcDbEntity
  8
text
 62
1
100
AcDbPolyline
 90
2
 70
0
 10
83.616549
 20
190.689896
 30
0.0
 10
78.627357
 20
184.275211
 30
0.0
  0
LWPOLYLINE
  5
115
100
AcDbEntity
  8
text
 62
1
100
AcDbPolyline
 90
2
 70
0
 10
83.616549
 20
190.689896
 30
0.0
 10
77.736429
 20
185.166158
 30
0.0
  0
LWPOLYLINE
  5
116
100
AcDbEntity
  8
text
 62
1
100
AcDbPolyline
 90
2
 70
0
 10
83.616549
 20
190.689896
 30
0.0
 10
77.023688
 20
186.057077
 30
0.0
  0
LWPOLYLINE
  5
117
100
AcDbEntity
  8
text
 62
1
100
AcDbPolyline
 90
2
 70
0
 10
83.616549
 20
190.689896
 30
0.0
 10
76.310947
 20
187.126191
 30
0.0
  0
LWPOLYLINE
  5
118
100
AcDbEntity
  8
text
 62
1
100
AcDbPolyline
 90
2
 70
0
 10
83.616549
 20
190.689896
 30
0.0
 10
75.954577
 20
188.195306
 30
0.0
  0
LWPOLYLINE
  5
119
100
AcDbEntity
  8
text
 62
1
100
AcDbPolyline
 90
2
 70
0
 10
83.616549
 20
190.689896
 30
0.0
 10
75.598206
 20
189.442587
 30
0.0
  0
LWPOLYLINE
  5
11a
100
AcDbEntity
  8
text
 62
1
100
AcDbPolyline
 90
2
 70
0
 10
83.616549
 20
190.689896
 30
0.0
 10
75.598206
 20
190.511701
 30
0.0
  0
LWPOLYLINE
  5
11b
100
AcDbEntity
  8
text
 62
1
100
AcDbPolyline
 90
2
 70
0
 10
83.616549
 20
190.689896
 30
0.0
 10
75.598206
 20
191.580815
 30
0.0
  0
LWPOLYLINE
  5
11c
100
AcDbEntity
  8
text
 62
1
100
AcDbPolyline
 90
2
 70
0
 10
83.616549
 20
190.689896
 30
0.0
 10
75.776390
 20
192.649929
 30
0.0
  0
LWPOLYLINE
  5
11d
100
AcDbEntity
  8
text
 62
1
100
AcDbPolyline
 90
2
 70
0
 10
83.616549
 20
190.689896
 30
0.0
 10
76.132763
 20
193.897239
 30
0.0
  0
LWPOLYLINE
  5
11e
100
AcDbEntity
  8
text
 62
1
100
AcDbPolyline
 90
2
 70
0
 10
83.616549
 20
190.689896
 30
0.0
 10
76.667318
 20
194.966353
 30
0.0
  0
LWPOLYLINE
  5
11f
100
AcDbEntity
  8
text
 62
1
100
AcDbPolyline
 90
2
 70
0
 10
83.616549
 20
190.689896
 30
0.0
 10
77.380059
 20
195.857272
 30
0.0
  0
LWPOLYLINE
  5
120
100
AcDbEntity
  8
text
 62
1
100
AcDbPolyline
 90
2
 70
0
 10
83.616549
 20
190.689896
 30
0.0
 10
78.270986
 20
196.748191
 30
0.0
  0
LWPOLYLINE
  5
121
100
AcDbEntity
  8
text
 62
1
100
AcDbPolyline
 90
2
 70
0
 10
83.616549
 20
190.689896
 30
0.0
 10
79.161914
 20
197.460943
 30
0.0
  0
LWPOLYLINE
  5
122
100
AcDbEntity
  8
text
 62
1
100
AcDbPolyline
 90
2
 70
0
 10
83.616549
 20
190.689896
 30
0.0
 10
80.231025
 20
197.995500
 30
0.0
  0
LWPOLYLINE
  5
123
100
AcDbEntity
  8
text
 62
1
100
AcDbPolyline
 90
2
 70
0
 10
83.616549
 20
190.689896
 30
0.0
 10
81.300139
 20
198.530058
 30
0.0
  0
LWPOLYLINE
  5
124
100
AcDbEntity
  8
text
 62
1
100
AcDbPolyline
 90
2
 70
0
 10
83.616549
 20
190.689896
 30
0.0
 10
82.547435
 20
198.708224
 30
0.0
  0
LWPOLYLINE
  5
125
100
AcDbEntity
  8
text
 62
1
100
AcDbPolyline
 90
2
 70
0
 10
83.616549
 20
190.689896
 30
0.0
 10
83.616549
 20
198.886420
 30
0.0
  0
LWPOLYLINE
  5
126
100
AcDbEntity
  8
text
 62
1
100
AcDbPolyline
 90
2
 70
0
 10
83.616549
 20
190.689896
 30
0.0
 10
84.685660
 20
198.708224
 30
0.0
  0
LWPOLYLINE
  5
127
100
AcDbEntity
  8
text
 62
1
100
AcDbPolyline
 90
2
 70
0
 10
83.616549
 20
190.689896
 30
0.0
 10
85.932958
 20
198.530058
 30
0.0
  0
LWPOLYLINE
  5
128
100
AcDbEntity
  8
text
 62
1
100
AcDbPolyline
 90
2
 70
0
 10
83.616549
 20
190.689896
 30
0.0
 10
87.002070
 20
197.995500
 30
0.0
  0
LWPOLYLINE
  5
129
100
AcDbEntity
  8
text
 62
1
100
AcDbPolyline
 90
2
 70
0
 10
83.616549
 20
190.689896
 30
0.0
 10
88.071181
 20
197.460943
 30
0.0
  0
LWPOLYLINE
  5
12a
100
AcDbEntity
  8
text
 62
1
100
AcDbPolyline
 90
2
 70
0
 10
83.616549
 20
190.689896
 30
0.0
 10
88.962109
 20
196.748191
 30
0.0
  0
LWPOLYLINE
  5
12b
100
AcDbEntity
  8
text
 62
1
100
AcDbPolyline
 90
2
 70
0
 10
83.616549
 20
190.689896
 30
0.0
 10
89.853036
 20
195.857272
 30
0.0
  0
LWPOLYLINE
  5
12c
100
AcDbEntity
  8
text
 62
1
100
AcDbPolyline
 90
2
 70
0
 10
83.616549
 20
190.689896
 30
0.0
 10
90.565777
 20
194.966353
 30
0.0
  0
LWPOLYLINE
  5
12d
100
AcDbEntity
  8
text
 62
1
100
AcDbPolyline
 90
2
 70
0
 10
83.616549
 20
190.689896
 30
0.0
 10
91.100334
 20
193.897239
 30
0.0
  0
LWPOLYLINE
  5
12e
100
AcDbEntity
  8
text
 62
1
100
AcDbPolyline
 90
2
 70
0
 10
83.616549
 20
190.689896
 30
0.0
 10
91.456705
 20
192.649929
 30
0.0
  0
LWPOLYLINE
  5
12f
100
AcDbEntity
  8
text
 62
1
100
AcDbPolyline
 90
2
 70
0
 10
83.616549
 20
190.689896
 30
0.0
 10
91.634891
 20
191.580815
 30
0.0
  0
LWPOLYLINE
  5
130
100
AcDbEntity
  8
text
 62
1
100
AcDbPolyline
 90
2
 70
0
 10
83.616549
 20
190.689896
 30
0.0
 10
91.634891
 20
190.511701
 30
0.0
  0
LWPOLYLINE
  5
131
100
AcDbEntity
  8
text
 62
1
100
AcDbPolyline
 90
2
 70
0
 10
83.616549
 20
190.689896
 30
0.0
 10
91.634891
 20
189.442587
 30
0.0
  0
LWPOLYLINE
  5
132
100
AcDbEntity
  8
text
 62
1
100
AcDbPolyline
 90
2
 70
0
 10
83.616549
 20
190.689896
 30
0.0
 10
91.278518
 20
188.195306
 30
0.0
  0
LWPOLYLINE
  5
133
100
AcDbEntity
  8
text
 62
1
100
AcDbPolyline
 90
2
 70
0
 10
83.616549
 20
190.689896
 30
0.0
 10
90.922148
 20
187.126191
 30
0.0
  0
LWPOLYLINE
  5
134
100
AcDbEntity
  8
text
 62
1
100
AcDbPolyline
 90
2
 70
0
 10
83.616549
 20
190.689896
 30
0.0
 10
90.209407
 20
186.057077
 30
0.0
  0
LWPOLYLINE
  5
135
100
AcDbEntity
  8
text
 62
1
100
AcDbPolyline
 90
2
 70
0
 10
83.616549
 20
190.689896
 30
0.0
 10
89.496666
 20
185.166158
 30
0.0
  0
LWPOLYLINE
  5
136
100
AcDbEntity
  8
text
 62
1
100
AcDbPolyline
 90
2
 70
0
 10
83.616549
 20
190.689896
 30
0.0
 10
88.605738
 20
184.275211
 30
0.0
  0
SPLINE
  5
137
100
AcDbEntity
  8
text
 62
1
100
AcDbSpline
 70
8
 71
3
 72
8
 73
4
 74
0
 40
0
 40
0
 40
0
 40
0
 40
1
 40
1
 40
1
 40
1
 10
80.943766
 20
190.689896
 30
0.0
 10
80.943766
 20
192.293567
 30
0.0
 10
82.012880
 20
193.362682
 30
0.0
 10
83.616549
 20
193.362682
 30
0.0
  0
SPLINE
  5
138
100
AcDbEntity
  8
text
 62
1
100
AcDbSpline
 70
8
 71
3
 72
8
 73
4
 74
0
 40
0
 40
0
 40
0
 40
0
 40
1
 40
1
 40
1
 40
1
 10
83.616549
 20
193.362682
 30
0.0
 10
85.220217
 20
193.362682
 30
0.0
 10
86.289329
 20
192.293567
 30
0.0
 10
86.289329
 20
190.689896
 30
0.0
  0
SPLINE
  5
139
100
AcDbEntity
  8
text
 62
1
100
AcDbSpline
 70
8
 71
3
 72
8
 73
4
 74
0
 40
0
 40
0
 40
0
 40
0
 40
1
 40
1
 40
1
 40
1
 10
86.289329
 20
190.689896
 30
0.0
 10
86.289329
 20
189.086225
 30
0.0
 10
85.220217
 20
188.017110
 30
0.0
 10
83.616549
 20
188.017110
 30
0.0
  0
SPLINE
  5
13a
100
AcDbEntity
  8
text
 62
1
100
AcDbSpline
 70
8
 71
3
 72
8
 73
4
 74
0
 40
0
 40
0
 40
0
 40
0
 40
1
 40
1
 40
1
 40
1
 10
83.616549
 20
188.017110
 30
0.0
 10
82.012880
 20
188.017110
 30
0.0
 10
80.943766
 20
189.086225
 30
0.0
 10
80.943766
 20
190.689896
 30
0.0
  0
LWPOLYLINE
  5
13b
100
AcDbEntity
  8
text
 62
1
100
AcDbPolyline
 90
2
 70
0
 10
83.616549
 20
190.689896
 30
0.0
 10
87.714811
 20
183.740654
 30
0.0
  0
LWPOLYLINE
  5
13c
100
AcDbEntity
  8
text
 62
1
100
AcDbPolyline
 90
2
 70
0
 10
82.547435
 20
190.689896
 30
0.0
 10
84.685660
 20
190.689896
 30
0.0
  0
SPLINE
  5
13d
100
AcDbEntity
  8
text
 62
7
100
AcDbSpline
 70
8
 71
3
 72
8
 73
4
 74
0
 40
0
 40
0
 40
0
 40
0
 40
1
 40
1
 40
1
 40
1
 10
83.828432
 20
190.635577
 30
0.0
 10
83.828432
 20
190.516288
 30
0.0
 10
83.720986
 20
190.419586
 30
0.0
 10
83.588441
 20
190.419586
 30
0.0
  0
SPLINE
  5
13e
100
AcDbEntity
  8
text
 62
7
100
AcDbSpline
 70
8
 71
3
 72
8
 73
4
 74
0
 40
0
 40
0
 40
0
 40
0
 40
1
 40
1
 40
1
 40
1
 10
83.588441
 20
190.419586
 30
0.0
 10
83.455900
 20
190.419586
 30
0.0
 10
83.348450
 20
190.516288
 30
0.0
 10
83.348450
 20
190.635577
 30
0.0
  0
SPLINE
  5
13f
100
AcDbEntity
  8
text
 62
7
100
AcDbSpline
 70
8
 71
3
 72
8
 73
4
 74
0
 40
0
 40
0
 40
0
 40
0
 40
1
 40
1
 40
1
 40
1
 10
83.348450
 20
190.635577
 30
0.0
 10
83.348450
 20
190.754866
 30
0.0
 10
83.455900
 20
190.851569
 30
0.0
 10
83.588441
 20
190.851569
 30
0.0
  0
SPLINE
  5
140
100
AcDbEntity
  8
text
 62
7
100
AcDbSpline
 70
8
 71
3
 72
8
 73
4
 74
0
 40
0
 40
0
 40
0
 40
0
 40
1
 40
1
 40
1
 40
1
 10
83.588441
 20
190.851569
 30
0.0
 10
83.720986
 20
190.851569
 30
0.0
 10
83.828432
 20
190.754866
 30
0.0
 10
83.828432
 20
190.635577
 30
0.0
  0
LWPOLYLINE
  5
141
100
AcDbEntity
  8
text
 62
1
100
AcDbPolyline
 90
2
 70
0
 10
83.616549
 20
189.620782
 30
0.0
 10
83.616549
 20
191.759010
 30
0.0
  0
SPLINE
  5
142
100
AcDbEntity
  8
text
 62
1
100
AcDbSpline
 70
8
 71
3
 72
8
 73
4
 74
0
 40
0
 40
0
 40
0
 40
0
 40
1
 40
1
 40
1
 40
1
 10
93.993655
 20
267.658116
 30
0.0
 10
93.993732
 20
267.606633
 30
0.0
 10
93.957155
 20
267.559037
 30
0.0
 10
93.897721
 20
267.533279
 30
0.0
  0
SPLINE
  5
143
100
AcDbEntity
  8
text
 62
1
100
AcDbSpline
 70
8
 71
3
 72
8
 73
4
 74
0
 40
0
 40
0
 40
0
 40
0
 40
1
 40
1
 40
1
 40
1
 10
93.897721
 20
267.533279
 30
0.0
 10
93.838287
 20
267.507521
 30
0.0
 10
93.765039
 20
267.507521
 30
0.0
 10
93.705605
 20
267.533279
 30
0.0
  0
SPLINE
  5
144
100
AcDbEntity
  8
text
 62
1
100
AcDbSpline
 70
8
 71
3
 72
8
 73
4
 74
0
 40
0
 40
0
 40
0
 40
0
 40
1
 40
1
 40
1
 40
1
 10
93.705605
 20
267.533279
 30
0.0
 10
93.646171
 20
267.559037
 30
0.0
 10
93.609594
 20
267.606633
 30
0.0
 10
93.609670
 20
267.658116
 30
0.0
  0
SPLINE
  5
145
100
AcDbEntity
  8
text
 62
1
100
AcDbSpline
 70
8
 71
3
 72
8
 73
4
 74
0
 40
0
 40
0
 40
0
 40
0
 40
1
 40
1
 40
1
 40
1
 10
93.609670
 20
267.658116
 30
0.0
 10
93.609594
 20
267.709598
 30
0.0
 10
93.646171
 20
267.757195
 30
0.0
 10
93.705605
 20
267.782953
 30
0.0
  0
SPLINE
  5
146
100
AcDbEntity
  8
text
 62
1
100
AcDbSpline
 70
8
 71
3
 72
8
 73
4
 74
0
 40
0
 40
0
 40
0
 40
0
 40
1
 40
1
 40
1
 40
1
 10
93.705605
 20
267.782953
 30
0.0
 10
93.765039
 20
267.808710
 30
0.0
 10
93.838287
 20
267.808710
 30
0.0
 10
93.897721
 20
267.782953
 30
0.0
  0
SPLINE
  5
147
100
AcDbEntity
  8
text
 62
1
100
AcDbSpline
 70
8
 71
3
 72
8
 73
4
 74
0
 40
0
 40
0
 40
0
 40
0
 40
1
 40
1
 40
1
 40
1
 10
93.897721
 20
267.782953
 30
0.0
 10
93.957155
 20
267.757195
 30
0.0
 10
93.993732
 20
267.709598
 30
0.0
 10
93.993655
 20
267.658116
 30
0.0
  0
LWPOLYLINE
  5
148
100
AcDbEntity
  8
text
 62
7
100
AcDbPolyline
 90
2
 70
1
 10
83.828432
 20
190.635577
 30
0.0
 10
83.828432
 20
190.635577
 30
0.0
  0
SPLINE
  5
149
100
AcDbEntity
  8
text
 62
1
100
AcDbSpline
 70
8
 71
3
 72
8
 73
4
 74
0
 40
0
 40
0
 40
0
 40
0
 40
1
 40
1
 40
1
 40
1
 10
94.041651
 20
146.294785
 30
0.0
 10
94.041651
 20
146.234766
 30
0.0
 10
94.000483
 20
146.179307
 30
0.0
 10
93.933655
 20
146.149298
 30
0.0
  0
SPLINE
  5
14a
100
AcDbEntity
  8
text
 62
1
100
AcDbSpline
 70
8
 71
3
 72
8
 73
4
 74
0
 40
0
 40
0
 40
0
 40
0
 40
1
 40
1
 40
1
 40
1
 10
93.933655
 20
146.149298
 30
0.0
 10
93.866827
 20
146.119289
 30
0.0
 10
93.784491
 20
146.119289
 30
0.0
 10
93.717663
 20
146.149298
 30
0.0
  0
SPLINE
  5
14b
100
AcDbEntity
  8
text
 62
1
100
AcDbSpline
 70
8
 71
3
 72
8
 73
4
 74
0
 40
0
 40
0
 40
0
 40
0
 40
1
 40
1
 40
1
 40
1
 10
93.717663
 20
146.149298
 30
0.0
 10
93.650835
 20
146.179307
 30
0.0
 10
93.609667
 20
146.234766
 30
0.0
 10
93.609667
 20
146.294785
 30
0.0
  0
SPLINE
  5
14c
100
AcDbEntity
  8
text
 62
1
100
AcDbSpline
 70
8
 71
3
 72
8
 73
4
 74
0
 40
0
 40
0
 40
0
 40
0
 40
1
 40
1
 40
1
 40
1
 10
93.609667
 20
146.294785
 30
0.0
 10
93.609667
 20
146.354803
 30
0.0
 10
93.650835
 20
146.410262
 30
0.0
 10
93.717663
 20
146.440271
 30
0.0
  0
SPLINE
  5
14d
100
AcDbEntity
  8
text
 62
1
100
AcDbSpline
 70
8
 71
3
 72
8
 73
4
 74
0
 40
0
 40
0
 40
0
 40
0
 40
1
 40
1
 40
1
 40
1
 10
93.717663
 20
146.440271
 30
0.0
 10
93.784491
 20
146.470281
 30
0.0
 10
93.866827
 20
146.470281
 30
0.0
 10
93.933655
 20
146.440271
 30
0.0
  0
SPLINE
  5
14e
100
AcDbEntity
  8
text
 62
1
100
AcDbSpline
 70
8
 71
3
 72
8
 73
4
 74
0
 40
0
 40
0
 40
0
 40
0
 40
1
 40
1
 40
1
 40
1
 10
93.933655
 20
146.440271
 30
0.0
 10
94.000483
 20
146.410262
 30
0.0
 10
94.041651
 20
146.354803
 30
0.0
 10
94.041651
 20
146.294785
 30
0.0
  0
LWPOLYLINE
  5
14f
100
AcDbEntity
  8
text
 62
1
100
AcDbPolyline
 90
2
 70
1
 10
93.993655
 20
267.658116
 30
0.0
 10
93.993655
 20
267.658116
 30
0.0
  0
SPLINE
  5
150
100
AcDbEntity
  8
text
 62
1
100
AcDbSpline
 70
8
 71
3
 72
8
 73
4
 74
0
 40
0
 40
0
 40
0
 40
0
 40
1
 40
1
 40
1
 40
1
 10
18.259201
 20
146.294785
 30
0.0
 10
18.259201
 20
146.234766
 30
0.0
 10
18.218033
 20
146.179307
 30
0.0
 10
18.151205
 20
146.149298
 30
0.0
  0
SPLINE
  5
151
100
AcDbEntity
  8
text
 62
1
100
AcDbSpline
 70
8
 71
3
 72
8
 73
4
 74
0
 40
0
 40
0
 40
0
 40
0
 40
1
 40
1
 40
1
 40
1
 10
18.151205
 20
146.149298
 30
0.0
 10
18.084377
 20
146.119289
 30
0.0
 10
18.002042
 20
146.119289
 30
0.0
 10
17.935213
 20
146.149298
 30
0.0
  0
SPLINE
  5
152
100
AcDbEntity
  8
text
 62
1
100
AcDbSpline
 70
8
 71
3
 72
8
 73
4
 74
0
 40
0
 40
0
 40
0
 40
0
 40
1
 40
1
 40
1
 40
1
 10
17.935213
 20
146.149298
 30
0.0
 10
17.868385
 20
146.179307
 30
0.0
 10
17.827218
 20
146.234766
 30
0.0
 10
17.827218
 20
146.294785
 30
0.0
  0
SPLINE
  5
153
100
AcDbEntity
  8
text
 62
1
100
AcDbSpline
 70
8
 71
3
 72
8
 73
4
 74
0
 40
0
 40
0
 40
0
 40
0
 40
1
 40
1
 40
1
 40
1
 10
17.827218
 20
146.294785
 30
0.0
 10
17.827218
 20
146.354803
 30
0.0
 10
17.868386
 20
146.410262
 30
0.0
 10
17.935214
 20
146.440271
 30
0.0
  0
SPLINE
  5
154
100
AcDbEntity
  8
text
 62
1
100
AcDbSpline
 70
8
 71
3
 72
8
 73
4
 74
0
 40
0
 40
0
 40
0
 40
0
 40
1
 40
1
 40
1
 40
1
 10
17.935214
 20
146.440271
 30
0.0
 10
18.002042
 20
146.470281
 30
0.0
 10
18.084377
 20
146.470281
 30
0.0
 10
18.151205
 20
146.440271
 30
0.0
  0
SPLINE
  5
155
100
AcDbEntity
  8
text
 62
1
100
AcDbSpline
 70
8
 71
3
 72
8
 73
4
 74
0
 40
0
 40
0
 40
0
 40
0
 40
1
 40
1
 40
1
 40
1
 10
18.151205
 20
146.440271
 30
0.0
 10
18.218033
 20
146.410262
 30
0.0
 10
18.259201
 20
146.354803
 30
0.0
 10
18.259201
 20
146.294785
 30
0.0
  0
LWPOLYLINE
  5
156
100
AcDbEntity
  8
text
 62
1
100
AcDbPolyline
 90
2
 70
1
 10
94.041651
 20
146.294785
 30
0.0
 10
94.041651
 20
146.294785
 30
0.0
  0
SPLINE
  5
157
100
AcDbEntity
  8
text
 62
1
100
AcDbSpline
 70
8
 71
3
 72
8
 73
4
 74
0
 40
0
 40
0
 40
0
 40
0
 40
1
 40
1
 40
1
 40
1
 10
46.663333
 20
190.419169
 30
0.0
 10
46.663333
 20
192.190113
 30
0.0
 10
47.844433
 20
193.370860
 30
0.0
 10
49.615378
 20
193.370860
 30
0.0
  0
SPLINE
  5
158
100
AcDbEntity
  8
text
 62
1
100
AcDbSpline
 70
8
 71
3
 72
8
 73
4
 74
0
 40
0
 40
0
 40
0
 40
0
 40
1
 40
1
 40
1
 40
1
 10
49.615378
 20
193.370860
 30
0.0
 10
51.387381
 20
193.370860
 30
0.0
 10
52.567070
 20
192.190113
 30
0.0
 10
52.567070
 20
190.419169
 30
0.0
  0
SPLINE
  5
159
100
AcDbEntity
  8
text
 62
1
100
AcDbSpline
 70
8
 71
3
 72
8
 73
4
 74
0
 40
0
 40
0
 40
0
 40
0
 40
1
 40
1
 40
1
 40
1
 10
52.567070
 20
190.419169
 30
0.0
 10
52.567070
 20
188.648577
 30
0.0
 10
51.387381
 20
187.467477
 30
0.0
 10
49.615378
 20
187.467477
 30
0.0
  0
SPLINE
  5
15a
100
AcDbEntity
  8
text
 62
1
100
AcDbSpline
 70
8
 71
3
 72
8
 73
4
 74
0
 40
0
 40
0
 40
0
 40
0
 40
1
 40
1
 40
1
 40
1
 10
49.615378
 20
187.467477
 30
0.0
 10
47.844433
 20
187.467477
 30
0.0
 10
46.663333
 20
188.648577
 30
0.0
 10
46.663333
 20
190.419169
 30
0.0
  0
LWPOLYLINE
  5
15b
100
AcDbEntity
  8
text
 62
1
100
AcDbPolyline
 90
2
 70
1
 10
18.259201
 20
146.294785
 30
0.0
 10
18.259201
 20
146.294785
 30
0.0
  0
LWPOLYLINE
  5
15c
100
AcDbEntity
  8
text
 62
1
100
AcDbPolyline
 90
2
 70
0
 10
48.435689
 20
190.419169
 30
0.0
 10
50.796125
 20
190.419169
 30
0.0
  0
LWPOLYLINE
  5
15d
100
AcDbEntity
  8
text
 62
1
100
AcDbPolyline
 90
2
 70
0
 10
49.615378
 20
189.238422
 30
0.0
 10
49.615378
 20
191.600269
 30
0.0
  0
LWPOLYLINE
  5
15e
100
AcDbEntity
  8
text
 62
7
100
AcDbPolyline
 90
6
 70
1
 10
56.721896
 20
266.892380
 30
0.0
 10
53.348308
 20
266.892380
 30
0.0
 10
53.348308
 20
254.486509
 30
0.0
 10
56.721896
 20
254.486509
 30
0.0
 10
56.721896
 20
266.892380
 30
0.0
 10
56.721896
 20
266.892380
 30
0.0
  0
LWPOLYLINE
  5
15f
100
AcDbEntity
  8
text
 62
7
100
AcDbPolyline
 90
6
 70
1
 10
73.950790
 20
266.892380
 30
0.0
 10
70.575797
 20
266.892380
 30
0.0
 10
70.575797
 20
254.486509
 30
0.0
 10
73.950790
 20
254.486509
 30
0.0
 10
73.950790
 20
266.892380
 30
0.0
 10
73.950790
 20
266.892380
 30
0.0
  0
SPLINE
  5
160
100
AcDbEntity
  8
text
 62
7
100
AcDbSpline
 70
8
 71
3
 72
8
 73
4
 74
0
 40
0
 40
0
 40
0
 40
0
 40
1
 40
1
 40
1
 40
1
 10
68.072994
 20
266.895189
 30
0.0
 10
68.723274
 20
266.895189
 30
0.0
 10
69.252767
 20
266.365696
 30
0.0
 10
69.252767
 20
265.712607
 30
0.0
  0
LWPOLYLINE
  5
161
100
AcDbEntity
  8
text
 62
7
100
AcDbPolyline
 90
6
 70
1
 10
61.419919
 20
257.464030
 30
0.0
 10
65.876370
 20
257.464030
 30
0.0
 10
65.876370
 20
263.912050
 30
0.0
 10
58.046331
 20
263.912050
 30
0.0
 10
58.046331
 20
266.892380
 30
0.0
 10
68.072994
 20
266.895189
 30
0.0
  0
SPLINE
  5
162
100
AcDbEntity
  8
text
 62
7
100
AcDbSpline
 70
8
 71
3
 72
8
 73
4
 74
0
 40
0
 40
0
 40
0
 40
0
 40
1
 40
1
 40
1
 40
1
 10
69.249958
 20
255.664877
 30
0.0
 10
69.249958
 20
255.011789
 30
0.0
 10
68.723274
 20
254.485104
 30
0.0
 10
68.067376
 20
254.485104
 30
0.0
  0
LWPOLYLINE
  5
163
100
AcDbEntity
  8
text
 62
7
100
AcDbPolyline
 90
2
 70
1
 10
69.252767
 20
265.712607
 30
0.0
 10
69.249958
 20
255.664877
 30
0.0
  0
LWPOLYLINE
  5
164
100
AcDbEntity
  8
text
 62
7
100
AcDbPolyline
 90
6
 70
1
 10
68.067376
 20
254.485104
 30
0.0
 10
58.046331
 20
254.485104
 30
0.0
 10
58.046331
 20
262.208402
 30
0.0
 10
61.419919
 20
262.208402
 30
0.0
 10
61.419919
 20
257.464030
 30
0.0
 10
61.419919
 20
257.464030
 30
0.0
  0
SPLINE
  5
165
100
AcDbEntity
  8
text
 62
7
100
AcDbSpline
 70
8
 71
3
 72
8
 73
4
 74
0
 40
0
 40
0
 40
0
 40
0
 40
1
 40
1
 40
1
 40
1
 10
52.026682
 20
265.712607
 30
0.0
 10
52.026682
 20
266.365696
 30
0.0
 10
51.497189
 20
266.895189
 30
0.0
 10
50.842696
 20
266.895189
 30
0.0
  0
LWPOLYLINE
  5
166
100
AcDbEntity
  8
text
 62
7
100
AcDbPolyline
 90
14
 70
0
 10
50.842696
 20
266.895189
 30
0.0
 10
48.647476
 20
266.892380
 30
0.0
 10
38.498622
 20
266.892380
 30
0.0
 10
38.498622
 20
254.485104
 30
0.0
 10
41.870806
 20
254.485104
 30
0.0
 10
41.870806
 20
263.912050
 30
0.0
 10
43.573049
 20
263.912050
 30
0.0
 10
43.573049
 20
254.485104
 30
0.0
 10
46.948042
 20
254.485104
 30
0.0
 10
46.948042
 20
263.912050
 30
0.0
 10
48.647476
 20
263.912050
 30
0.0
 10
48.647476
 20
254.485104
 30
0.0
 10
52.023873
 20
254.485104
 30
0.0
 10
52.026682
 20
265.712607
 30
0.0
  0
LWPOLYLINE
  5
167
100
AcDbEntity
  8
text
 62
1
100
AcDbPolyline
 90
2
 70
0
 10
83.616550
 20
222.298796
 30
0.0
 10
79.161915
 20
214.280440
 30
0.0
  0
LWPOLYLINE
  5
168
100
AcDbEntity
  8
text
 62
1
100
AcDbPolyline
 90
2
 70
0
 10
83.616550
 20
222.298796
 30
0.0
 10
75.420021
 20
218.200534
 30
0.0
  0
LWPOLYLINE
  5
169
100
AcDbEntity
  8
text
 62
1
100
AcDbPolyline
 90
2
 70
0
 10
83.616550
 20
222.298796
 30
0.0
 10
74.529096
 20
223.367910
 30
0.0
  0
LWPOLYLINE
  5
16a
100
AcDbEntity
  8
text
 62
1
100
AcDbPolyline
 90
2
 70
0
 10
83.616550
 20
222.298796
 30
0.0
 10
76.667319
 20
228.178924
 30
0.0
  0
LWPOLYLINE
  5
16b
100
AcDbEntity
  8
text
 62
1
100
AcDbPolyline
 90
2
 70
0
 10
83.616550
 20
222.298796
 30
0.0
 10
81.121954
 20
231.029877
 30
0.0
  0
LWPOLYLINE
  5
16c
100
AcDbEntity
  8
text
 62
1
100
AcDbPolyline
 90
2
 70
0
 10
83.616550
 20
222.298796
 30
0.0
 10
86.111143
 20
231.029877
 30
0.0
  0
LWPOLYLINE
  5
16d
100
AcDbEntity
  8
text
 62
1
100
AcDbPolyline
 90
2
 70
0
 10
83.616550
 20
222.298796
 30
0.0
 10
90.565778
 20
228.178924
 30
0.0
  0
LWPOLYLINE
  5
16e
100
AcDbEntity
  8
text
 62
1
100
AcDbPolyline
 90
2
 70
0
 10
83.616550
 20
222.298796
 30
0.0
 10
92.704004
 20
223.367910
 30
0.0
  0
LWPOLYLINE
  5
16f
100
AcDbEntity
  8
text
 62
1
100
AcDbPolyline
 90
2
 70
0
 10
83.616550
 20
222.298796
 30
0.0
 10
91.813076
 20
218.200534
 30
0.0
  0
LWPOLYLINE
  5
170
100
AcDbEntity
  8
text
 62
1
100
AcDbPolyline
 90
2
 70
0
 10
83.616550
 20
222.298796
 30
0.0
 10
88.249369
 20
214.280440
 30
0.0
  0
LWPOLYLINE
  5
171
100
AcDbEntity
  8
text
 62
1
100
AcDbPolyline
 90
2
 70
0
 10
83.616550
 20
222.298796
 30
0.0
 10
79.696472
 20
215.349554
 30
0.0
  0
LWPOLYLINE
  5
172
100
AcDbEntity
  8
text
 62
1
100
AcDbPolyline
 90
2
 70
0
 10
83.616550
 20
222.298796
 30
0.0
 10
78.627358
 20
215.884111
 30
0.0
  0
LWPOLYLINE
  5
173
100
AcDbEntity
  8
text
 62
1
100
AcDbPolyline
 90
2
 70
0
 10
83.616550
 20
222.298796
 30
0.0
 10
77.736430
 20
216.775058
 30
0.0
  0
LWPOLYLINE
  5
174
100
AcDbEntity
  8
text
 62
1
100
AcDbPolyline
 90
2
 70
0
 10
83.616550
 20
222.298796
 30
0.0
 10
77.023689
 20
217.665977
 30
0.0
  0
LWPOLYLINE
  5
175
100
AcDbEntity
  8
text
 62
1
100
AcDbPolyline
 90
2
 70
0
 10
83.616550
 20
222.298796
 30
0.0
 10
76.310948
 20
218.735092
 30
0.0
  0
LWPOLYLINE
  5
176
100
AcDbEntity
  8
text
 62
1
100
AcDbPolyline
 90
2
 70
0
 10
83.616550
 20
222.298796
 30
0.0
 10
75.954578
 20
219.804206
 30
0.0
  0
LWPOLYLINE
  5
177
100
AcDbEntity
  8
text
 62
1
100
AcDbPolyline
 90
2
 70
0
 10
83.616550
 20
222.298796
 30
0.0
 10
75.598207
 20
221.051487
 30
0.0
  0
LWPOLYLINE
  5
178
100
AcDbEntity
  8
text
 62
1
100
AcDbPolyline
 90
2
 70
0
 10
83.616550
 20
222.298796
 30
0.0
 10
75.598207
 20
222.120601
 30
0.0
  0
LWPOLYLINE
  5
179
100
AcDbEntity
  8
text
 62
1
100
AcDbPolyline
 90
2
 70
0
 10
83.616550
 20
222.298796
 30
0.0
 10
75.598207
 20
223.189715
 30
0.0
  0
LWPOLYLINE
  5
17a
100
AcDbEntity
  8
text
 62
1
100
AcDbPolyline
 90
2
 70
0
 10
83.616550
 20
222.298796
 30
0.0
 10
75.776391
 20
224.258830
 30
0.0
  0
LWPOLYLINE
  5
17b
100
AcDbEntity
  8
text
 62
1
100
AcDbPolyline
 90
2
 70
0
 10
83.616550
 20
222.298796
 30
0.0
 10
76.132765
 20
225.506139
 30
0.0
  0
LWPOLYLINE
  5
17c
100
AcDbEntity
  8
text
 62
1
100
AcDbPolyline
 90
2
 70
0
 10
83.616550
 20
222.298796
 30
0.0
 10
76.667319
 20
226.575253
 30
0.0
  0
LWPOLYLINE
  5
17d
100
AcDbEntity
  8
text
 62
1
100
AcDbPolyline
 90
2
 70
0
 10
83.616550
 20
222.298796
 30
0.0
 10
77.380060
 20
227.466172
 30
0.0
  0
LWPOLYLINE
  5
17e
100
AcDbEntity
  8
text
 62
1
100
AcDbPolyline
 90
2
 70
0
 10
83.616550
 20
222.298796
 30
0.0
 10
78.270987
 20
228.357091
 30
0.0
  0
LWPOLYLINE
  5
17f
100
AcDbEntity
  8
text
 62
1
100
AcDbPolyline
 90
2
 70
0
 10
83.616550
 20
222.298796
 30
0.0
 10
79.161915
 20
229.069844
 30
0.0
  0
LWPOLYLINE
  5
180
100
AcDbEntity
  8
text
 62
1
100
AcDbPolyline
 90
2
 70
0
 10
83.616550
 20
222.298796
 30
0.0
 10
80.231026
 20
229.604401
 30
0.0
  0
LWPOLYLINE
  5
181
100
AcDbEntity
  8
text
 62
1
100
AcDbPolyline
 90
2
 70
0
 10
83.616550
 20
222.298796
 30
0.0
 10
81.300141
 20
230.138958
 30
0.0
  0
LWPOLYLINE
  5
182
100
AcDbEntity
  8
text
 62
1
100
AcDbPolyline
 90
2
 70
0
 10
83.616550
 20
222.298796
 30
0.0
 10
82.547436
 20
230.317125
 30
0.0
  0
LWPOLYLINE
  5
183
100
AcDbEntity
  8
text
 62
1
100
AcDbPolyline
 90
2
 70
0
 10
83.616550
 20
222.298796
 30
0.0
 10
83.616550
 20
230.495320
 30
0.0
  0
LWPOLYLINE
  5
184
100
AcDbEntity
  8
text
 62
1
100
AcDbPolyline
 90
2
 70
0
 10
83.616550
 20
222.298796
 30
0.0
 10
84.685661
 20
230.317125
 30
0.0
  0
LWPOLYLINE
  5
185
100
AcDbEntity
  8
text
 62
1
100
AcDbPolyline
 90
2
 70
0
 10
83.616550
 20
222.298796
 30
0.0
 10
85.932959
 20
230.138958
 30
0.0
  0
LWPOLYLINE
  5
186
100
AcDbEntity
  8
text
 62
1
100
AcDbPolyline
 90
2
 70
0
 10
83.616550
 20
222.298796
 30
0.0
 10
87.002071
 20
229.604401
 30
0.0
  0
LWPOLYLINE
  5
187
100
AcDbEntity
  8
text
 62
1
100
AcDbPolyline
 90
2
 70
0
 10
83.616550
 20
222.298796
 30
0.0
 10
88.071182
 20
229.069844
 30
0.0
  0
LWPOLYLINE
  5
188
100
AcDbEntity
  8
text
 62
1
100
AcDbPolyline
 90
2
 70
0
 10
83.616550
 20
222.298796
 30
0.0
 10
88.962110
 20
228.357091
 30
0.0
  0
LWPOLYLINE
  5
189
100
AcDbEntity
  8
text
 62
1
100
AcDbPolyline
 90
2
 70
0
 10
83.616550
 20
222.298796
 30
0.0
 10
89.853037
 20
227.466172
 30
0.0
  0
LWPOLYLINE
  5
18a
100
AcDbEntity
  8
text
 62
1
100
AcDbPolyline
 90
2
 70
0
 10
83.616550
 20
222.298796
 30
0.0
 10
90.565778
 20
226.575253
 30
0.0
  0
LWPOLYLINE
  5
18b
100
AcDbEntity
  8
text
 62
1
100
AcDbPolyline
 90
2
 70
0
 10
83.616550
 20
222.298796
 30
0.0
 10
91.100335
 20
225.506139
 30
0.0
  0
LWPOLYLINE
  5
18c
100
AcDbEntity
  8
text
 62
1
100
AcDbPolyline
 90
2
 70
0
 10
83.616550
 20
222.298796
 30
0.0
 10
91.456706
 20
224.258830
 30
0.0
  0
LWPOLYLINE
  5
18d
100
AcDbEntity
  8
text
 62
1
100
AcDbPolyline
 90
2
 70
0
 10
83.616550
 20
222.298796
 30
0.0
 10
91.634893
 20
223.189715
 30
0.0
  0
LWPOLYLINE
  5
18e
100
AcDbEntity
  8
text
 62
1
100
AcDbPolyline
 90
2
 70
0
 10
83.616550
 20
222.298796
 30
0.0
 10
91.634893
 20
222.120601
 30
0.0
  0
LWPOLYLINE
  5
18f
100
AcDbEntity
  8
text
 62
1
100
AcDbPolyline
 90
2
 70
0
 10
83.616550
 20
222.298796
 30
0.0
 10
91.634893
 20
221.051487
 30
0.0
  0
LWPOLYLINE
  5
190
100
AcDbEntity
  8
text
 62
1
100
AcDbPolyline
 90
2
 70
0
 10
83.616550
 20
222.298796
 30
0.0
 10
91.278519
 20
219.804206
 30
0.0
  0
LWPOLYLINE
  5
191
100
AcDbEntity
  8
text
 62
1
100
AcDbPolyline
 90
2
 70
0
 10
83.616550
 20
222.298796
 30
0.0
 10
90.922149
 20
218.735092
 30
0.0
  0
LWPOLYLINE
  5
192
100
AcDbEntity
  8
text
 62
1
100
AcDbPolyline
 90
2
 70
0
 10
83.616550
 20
222.298796
 30
0.0
 10
90.209408
 20
217.665977
 30
0.0
  0
LWPOLYLINE
  5
193
100
AcDbEntity
  8
text
 62
1
100
AcDbPolyline
 90
2
 70
0
 10
83.616550
 20
222.298796
 30
0.0
 10
89.496667
 20
216.775058
 30
0.0
  0
LWPOLYLINE
  5
194
100
AcDbEntity
  8
text
 62
1
100
AcDbPolyline
 90
2
 70
0
 10
83.616550
 20
222.298796
 30
0.0
 10
88.605739
 20
215.884111
 30
0.0
  0
SPLINE
  5
195
100
AcDbEntity
  8
text
 62
1
100
AcDbSpline
 70
8
 71
3
 72
8
 73
4
 74
0
 40
0
 40
0
 40
0
 40
0
 40
1
 40
1
 40
1
 40
1
 10
80.943767
 20
222.298796
 30
0.0
 10
80.943767
 20
223.902468
 30
0.0
 10
82.012881
 20
224.971582
 30
0.0
 10
83.616550
 20
224.971582
 30
0.0
  0
SPLINE
  5
196
100
AcDbEntity
  8
text
 62
1
100
AcDbSpline
 70
8
 71
3
 72
8
 73
4
 74
0
 40
0
 40
0
 40
0
 40
0
 40
1
 40
1
 40
1
 40
1
 10
83.616550
 20
224.971582
 30
0.0
 10
85.220218
 20
224.971582
 30
0.0
 10
86.289330
 20
223.902468
 30
0.0
 10
86.289330
 20
222.298796
 30
0.0
  0
SPLINE
  5
197
100
AcDbEntity
  8
text
 62
1
100
AcDbSpline
 70
8
 71
3
 72
8
 73
4
 74
0
 40
0
 40
0
 40
0
 40
0
 40
1
 40
1
 40
1
 40
1
 10
86.289330
 20
222.298796
 30
0.0
 10
86.289330
 20
220.695125
 30
0.0
 10
85.220218
 20
219.626011
 30
0.0
 10
83.616550
 20
219.626011
 30
0.0
  0
SPLINE
  5
198
100
AcDbEntity
  8
text
 62
1
100
AcDbSpline
 70
8
 71
3
 72
8
 73
4
 74
0
 40
0
 40
0
 40
0
 40
0
 40
1
 40
1
 40
1
 40
1
 10
83.616550
 20
219.626011
 30
0.0
 10
82.012881
 20
219.626011
 30
0.0
 10
80.943767
 20
220.695125
 30
0.0
 10
80.943767
 20
222.298796
 30
0.0
  0
LWPOLYLINE
  5
199
100
AcDbEntity
  8
text
 62
1
100
AcDbPolyline
 90
2
 70
0
 10
83.616550
 20
222.298796
 30
0.0
 10
87.714812
 20
215.349554
 30
0.0
  0
LWPOLYLINE
  5
19a
100
AcDbEntity
  8
text
 62
1
100
AcDbPolyline
 90
2
 70
0
 10
82.547436
 20
222.298796
 30
0.0
 10
84.685661
 20
222.298796
 30
0.0
  0
SPLINE
  5
19b
100
AcDbEntity
  8
text
 62
7
100
AcDbSpline
 70
8
 71
3
 72
8
 73
4
 74
0
 40
0
 40
0
 40
0
 40
0
 40
1
 40
1
 40
1
 40
1
 10
83.828433
 20
222.244466
 30
0.0
 10
83.828433
 20
222.167300
 30
0.0
 10
83.782691
 20
222.095995
 30
0.0
 10
83.708438
 20
222.057412
 30
0.0
  0
SPLINE
  5
19c
100
AcDbEntity
  8
text
 62
7
100
AcDbSpline
 70
8
 71
3
 72
8
 73
4
 74
0
 40
0
 40
0
 40
0
 40
0
 40
1
 40
1
 40
1
 40
1
 10
83.708438
 20
222.057412
 30
0.0
 10
83.634184
 20
222.018829
 30
0.0
 10
83.542700
 20
222.018829
 30
0.0
 10
83.468447
 20
222.057412
 30
0.0
  0
SPLINE
  5
19d
100
AcDbEntity
  8
text
 62
7
100
AcDbSpline
 70
8
 71
3
 72
8
 73
4
 74
0
 40
0
 40
0
 40
0
 40
0
 40
1
 40
1
 40
1
 40
1
 10
83.468447
 20
222.057412
 30
0.0
 10
83.394193
 20
222.095995
 30
0.0
 10
83.348451
 20
222.167300
 30
0.0
 10
83.348452
 20
222.244466
 30
0.0
  0
SPLINE
  5
19e
100
AcDbEntity
  8
text
 62
7
100
AcDbSpline
 70
8
 71
3
 72
8
 73
4
 74
0
 40
0
 40
0
 40
0
 40
0
 40
1
 40
1
 40
1
 40
1
 10
83.348452
 20
222.244466
 30
0.0
 10
83.348452
 20
222.321633
 30
0.0
 10
83.394194
 20
222.392937
 30
0.0
 10
83.468447
 20
222.431520
 30
0.0
  0
SPLINE
  5
19f
100
AcDbEntity
  8
text
 62
7
100
AcDbSpline
 70
8
 71
3
 72
8
 73
4
 74
0
 40
0
 40
0
 40
0
 40
0
 40
1
 40
1
 40
1
 40
1
 10
83.468447
 20
222.431520
 30
0.0
 10
83.542701
 20
222.470104
 30
0.0
 10
83.634184
 20
222.470104
 30
0.0
 10
83.708438
 20
222.431520
 30
0.0
  0
SPLINE
  5
1a0
100
AcDbEntity
  8
text
 62
7
100
AcDbSpline
 70
8
 71
3
 72
8
 73
4
 74
0
 40
0
 40
0
 40
0
 40
0
 40
1
 40
1
 40
1
 40
1
 10
83.708438
 20
222.431520
 30
0.0
 10
83.782691
 20
222.392937
 30
0.0
 10
83.828433
 20
222.321633
 30
0.0
 10
83.828433
 20
222.244466
 30
0.0
  0
LWPOLYLINE
  5
1a1
100
AcDbEntity
  8
text
 62
1
100
AcDbPolyline
 90
2
 70
0
 10
83.616550
 20
221.229682
 30
0.0
 10
83.616550
 20
223.367910
 30
0.0
  0
SPLINE
  5
1a2
100
AcDbEntity
  8
text
 62
4
100
AcDbSpline
 70
8
 71
3
 72
8
 73
4
 74
0
 40
0
 40
0
 40
0
 40
0
 40
1
 40
1
 40
1
 40
1
 10
15.678739
 20
245.622426
 30
0.0
 10
15.678739
 20
245.503137
 30
0.0
 10
15.571293
 20
245.406434
 30
0.0
 10
15.438748
 20
245.406434
 30
0.0
  0
SPLINE
  5
1a3
100
AcDbEntity
  8
text
 62
4
100
AcDbSpline
 70
8
 71
3
 72
8
 73
4
 74
0
 40
0
 40
0
 40
0
 40
0
 40
1
 40
1
 40
1
 40
1
 10
15.438748
 20
245.406434
 30
0.0
 10
15.306206
 20
245.406434
 30
0.0
 10
15.198756
 20
245.503137
 30
0.0
 10
15.198756
 20
245.622426
 30
0.0
  0
SPLINE
  5
1a4
100
AcDbEntity
  8
text
 62
4
100
AcDbSpline
 70
8
 71
3
 72
8
 73
4
 74
0
 40
0
 40
0
 40
0
 40
0
 40
1
 40
1
 40
1
 40
1
 10
15.198756
 20
245.622426
 30
0.0
 10
15.198756
 20
245.741714
 30
0.0
 10
15.306206
 20
245.838417
 30
0.0
 10
15.438748
 20
245.838417
 30
0.0
  0
SPLINE
  5
1a5
100
AcDbEntity
  8
text
 62
4
100
AcDbSpline
 70
8
 71
3
 72
8
 73
4
 74
0
 40
0
 40
0
 40
0
 40
0
 40
1
 40
1
 40
1
 40
1
 10
15.438748
 20
245.838417
 30
0.0
 10
15.571293
 20
245.838417
 30
0.0
 10
15.678739
 20
245.741714
 30
0.0
 10
15.678739
 20
245.622426
 30
0.0
  0
LWPOLYLINE
  5
1a6
100
AcDbEntity
  8
text
 62
7
100
AcDbPolyline
 90
2
 70
1
 10
83.828433
 20
222.244466
 30
0.0
 10
83.828434
 20
222.244466
 30
0.0
  0
SPLINE
  5
1a7
100
AcDbEntity
  8
text
 62
4
100
AcDbSpline
 70
8
 71
3
 72
8
 73
4
 74
0
 40
0
 40
0
 40
0
 40
0
 40
1
 40
1
 40
1
 40
1
 10
37.906790
 20
245.622426
 30
0.0
 10
37.906790
 20
245.503137
 30
0.0
 10
37.799343
 20
245.406434
 30
0.0
 10
37.666799
 20
245.406434
 30
0.0
  0
SPLINE
  5
1a8
100
AcDbEntity
  8
text
 62
4
100
AcDbSpline
 70
8
 71
3
 72
8
 73
4
 74
0
 40
0
 40
0
 40
0
 40
0
 40
1
 40
1
 40
1
 40
1
 10
37.666799
 20
245.406434
 30
0.0
 10
37.534257
 20
245.406434
 30
0.0
 10
37.426807
 20
245.503137
 30
0.0
 10
37.426807
 20
245.622426
 30
0.0
  0
SPLINE
  5
1a9
100
AcDbEntity
  8
text
 62
4
100
AcDbSpline
 70
8
 71
3
 72
8
 73
4
 74
0
 40
0
 40
0
 40
0
 40
0
 40
1
 40
1
 40
1
 40
1
 10
37.426807
 20
245.622426
 30
0.0
 10
37.426807
 20
245.741714
 30
0.0
 10
37.534257
 20
245.838417
 30
0.0
 10
37.666799
 20
245.838417
 30
0.0
  0
SPLINE
  5
1aa
100
AcDbEntity
  8
text
 62
4
100
AcDbSpline
 70
8
 71
3
 72
8
 73
4
 74
0
 40
0
 40
0
 40
0
 40
0
 40
1
 40
1
 40
1
 40
1
 10
37.666799
 20
245.838417
 30
0.0
 10
37.799343
 20
245.838417
 30
0.0
 10
37.906790
 20
245.741714
 30
0.0
 10
37.906790
 20
245.622426
 30
0.0
  0
LWPOLYLINE
  5
1ab
100
AcDbEntity
  8
text
 62
4
100
AcDbPolyline
 90
2
 70
1
 10
15.678739
 20
245.622426
 30
0.0
 10
15.678739
 20
245.622426
 30
0.0
  0
SPLINE
  5
1ac
100
AcDbEntity
  8
text
 62
4
100
AcDbSpline
 70
8
 71
3
 72
8
 73
4
 74
0
 40
0
 40
0
 40
0
 40
0
 40
1
 40
1
 40
1
 40
1
 10
26.681336
 20
245.622426
 30
0.0
 10
26.681336
 20
245.503137
 30
0.0
 10
26.573890
 20
245.406434
 30
0.0
 10
26.441345
 20
245.406434
 30
0.0
  0
SPLINE
  5
1ad
100
AcDbEntity
  8
text
 62
4
100
AcDbSpline
 70
8
 71
3
 72
8
 73
4
 74
0
 40
0
 40
0
 40
0
 40
0
 40
1
 40
1
 40
1
 40
1
 10
26.441345
 20
245.406434
 30
0.0
 10
26.308803
 20
245.406434
 30
0.0
 10
26.201353
 20
245.503137
 30
0.0
 10
26.201353
 20
245.622426
 30
0.0
  0
SPLINE
  5
1ae
100
AcDbEntity
  8
text
 62
4
100
AcDbSpline
 70
8
 71
3
 72
8
 73
4
 74
0
 40
0
 40
0
 40
0
 40
0
 40
1
 40
1
 40
1
 40
1
 10
26.201353
 20
245.622426
 30
0.0
 10
26.201353
 20
245.741714
 30
0.0
 10
26.308803
 20
245.838417
 30
0.0
 10
26.441345
 20
245.838417
 30
0.0
  0
SPLINE
  5
1af
100
AcDbEntity
  8
text
 62
4
100
AcDbSpline
 70
8
 71
3
 72
8
 73
4
 74
0
 40
0
 40
0
 40
0
 40
0
 40
1
 40
1
 40
1
 40
1
 10
26.441345
 20
245.838417
 30
0.0
 10
26.573890
 20
245.838417
 30
0.0
 10
26.681336
 20
245.741714
 30
0.0
 10
26.681336
 20
245.622426
 30
0.0
  0
LWPOLYLINE
  5
1b0
100
AcDbEntity
  8
text
 62
4
100
AcDbPolyline
 90
2
 70
1
 10
37.906790
 20
245.622426
 30
0.0
 10
37.906790
 20
245.622426
 30
0.0
  0
LWPOLYLINE
  5
1b1
100
AcDbEntity
  8
text
 62
4
100
AcDbPolyline
 90
2
 70
1
 10
26.681336
 20
245.622426
 30
0.0
 10
26.681336
 20
245.622426
 30
0.0
  0
LWPOLYLINE
  5
1b2
100
AcDbEntity
  8
text
 62
1
100
AcDbPolyline
 90
2
 70
0
 10
54.446328
 20
190.684266
 30
0.0
 10
57.011223
 20
190.684266
 30
0.0
  0
SPLINE
  5
1b3
100
AcDbEntity
  8
text
 62
4
100
AcDbSpline
 70
8
 71
3
 72
8
 73
4
 74
0
 40
0
 40
0
 40
0
 40
0
 40
1
 40
1
 40
1
 40
1
 10
15.678739
 20
167.729092
 30
0.0
 10
15.678739
 20
167.609803
 30
0.0
 10
15.571293
 20
167.513101
 30
0.0
 10
15.438748
 20
167.513101
 30
0.0
  0
SPLINE
  5
1b4
100
AcDbEntity
  8
text
 62
4
100
AcDbSpline
 70
8
 71
3
 72
8
 73
4
 74
0
 40
0
 40
0
 40
0
 40
0
 40
1
 40
1
 40
1
 40
1
 10
15.438748
 20
167.513101
 30
0.0
 10
15.306206
 20
167.513101
 30
0.0
 10
15.198756
 20
167.609803
 30
0.0
 10
15.198756
 20
167.729092
 30
0.0
  0
SPLINE
  5
1b5
100
AcDbEntity
  8
text
 62
4
100
AcDbSpline
 70
8
 71
3
 72
8
 73
4
 74
0
 40
0
 40
0
 40
0
 40
0
 40
1
 40
1
 40
1
 40
1
 10
15.198756
 20
167.729092
 30
0.0
 10
15.198756
 20
167.848381
 30
0.0
 10
15.306206
 20
167.945084
 30
0.0
 10
15.438748
 20
167.945084
 30
0.0
  0
SPLINE
  5
1b6
100
AcDbEntity
  8
text
 62
4
100
AcDbSpline
 70
8
 71
3
 72
8
 73
4
 74
0
 40
0
 40
0
 40
0
 40
0
 40
1
 40
1
 40
1
 40
1
 10
15.438748
 20
167.945084
 30
0.0
 10
15.571293
 20
167.945084
 30
0.0
 10
15.678739
 20
167.848381
 30
0.0
 10
15.678739
 20
167.729092
 30
0.0
  0
LWPOLYLINE
  5
1b7
100
AcDbEntity
  8
text
 62
1
100
AcDbPolyline
 90
2
 70
0
 10
67.349853
 20
190.684266
 30
0.0
 10
69.721352
 20
190.684266
 30
0.0
  0
SPLINE
  5
1b8
100
AcDbEntity
  8
text
 62
4
100
AcDbSpline
 70
8
 71
3
 72
8
 73
4
 74
0
 40
0
 40
0
 40
0
 40
0
 40
1
 40
1
 40
1
 40
1
 10
37.906790
 20
167.729092
 30
0.0
 10
37.906790
 20
167.609803
 30
0.0
 10
37.799343
 20
167.513101
 30
0.0
 10
37.666799
 20
167.513101
 30
0.0
  0
SPLINE
  5
1b9
100
AcDbEntity
  8
text
 62
4
100
AcDbSpline
 70
8
 71
3
 72
8
 73
4
 74
0
 40
0
 40
0
 40
0
 40
0
 40
1
 40
1
 40
1
 40
1
 10
37.666799
 20
167.513101
 30
0.0
 10
37.534257
 20
167.513101
 30
0.0
 10
37.426807
 20
167.609803
 30
0.0
 10
37.426807
 20
167.729092
 30
0.0
  0
SPLINE
  5
1ba
100
AcDbEntity
  8
text
 62
4
100
AcDbSpline
 70
8
 71
3
 72
8
 73
4
 74
0
 40
0
 40
0
 40
0
 40
0
 40
1
 40
1
 40
1
 40
1
 10
37.426807
 20
167.729092
 30
0.0
 10
37.426807
 20
167.848381
 30
0.0
 10
37.534257
 20
167.945084
 30
0.0
 10
37.666799
 20
167.945084
 30
0.0
  0
SPLINE
  5
1bb
100
AcDbEntity
  8
text
 62
4
100
AcDbSpline
 70
8
 71
3
 72
8
 73
4
 74
0
 40
0
 40
0
 40
0
 40
0
 40
1
 40
1
 40
1
 40
1
 10
37.666799
 20
167.945084
 30
0.0
 10
37.799343
 20
167.945084
 30
0.0
 10
37.906790
 20
167.848381
 30
0.0
 10
37.906790
 20
167.729092
 30
0.0
  0
LWPOLYLINE
  5
1bc
100
AcDbEntity
  8
text
 62
4
100
AcDbPolyline
 90
2
 70
1
 10
15.678739
 20
167.729092
 30
0.0
 10
15.678739
 20
167.729092
 30
0.0
  0
SPLINE
  5
1bd
100
AcDbEntity
  8
text
 62
4
100
AcDbSpline
 70
8
 71
3
 72
8
 73
4
 74
0
 40
0
 40
0
 40
0
 40
0
 40
1
 40
1
 40
1
 40
1
 10
26.681336
 20
167.729092
 30
0.0
 10
26.681336
 20
167.609803
 30
0.0
 10
26.573890
 20
167.513101
 30
0.0
 10
26.441345
 20
167.513101
 30
0.0
  0
SPLINE
  5
1be
100
AcDbEntity
  8
text
 62
4
100
AcDbSpline
 70
8
 71
3
 72
8
 73
4
 74
0
 40
0
 40
0
 40
0
 40
0
 40
1
 40
1
 40
1
 40
1
 10
26.441345
 20
167.513101
 30
0.0
 10
26.308803
 20
167.513101
 30
0.0
 10
26.201353
 20
167.609803
 30
0.0
 10
26.201353
 20
167.729092
 30
0.0
  0
SPLINE
  5
1bf
100
AcDbEntity
  8
text
 62
4
100
AcDbSpline
 70
8
 71
3
 72
8
 73
4
 74
0
 40
0
 40
0
 40
0
 40
0
 40
1
 40
1
 40
1
 40
1
 10
26.201353
 20
167.729092
 30
0.0
 10
26.201353
 20
167.848381
 30
0.0
 10
26.308803
 20
167.945084
 30
0.0
 10
26.441345
 20
167.945084
 30
0.0
  0
SPLINE
  5
1c0
100
AcDbEntity
  8
text
 62
4
100
AcDbSpline
 70
8
 71
3
 72
8
 73
4
 74
0
 40
0
 40
0
 40
0
 40
0
 40
1
 40
1
 40
1
 40
1
 10
26.441345
 20
167.945084
 30
0.0
 10
26.573890
 20
167.945084
 30
0.0
 10
26.681336
 20
167.848381
 30
0.0
 10
26.681336
 20
167.729092
 30
0.0
  0
LWPOLYLINE
  5
1c1
100
AcDbEntity
  8
text
 62
4
100
AcDbPolyline
 90
2
 70
1
 10
37.906790
 20
167.729092
 30
0.0
 10
37.906790
 20
167.729092
 30
0.0
  0
LWPOLYLINE
  5
1c2
100
AcDbEntity
  8
text
 62
4
100
AcDbPolyline
 90
2
 70
1
 10
26.681336
 20
167.729092
 30
0.0
 10
26.681336
 20
167.729092
 30
0.0
  0
LWPOLYLINE
  5
1c3
100
AcDbEntity
  8
text
 62
1
100
AcDbPolyline
 90
2
 70
0
 10
41.385408
 20
222.293155
 30
0.0
 10
46.851223
 20
222.293155
 30
0.0
  0
SPLINE
  5
1c4
100
AcDbEntity
  8
text
 62
1
100
AcDbSpline
 70
8
 71
3
 72
8
 73
4
 74
0
 40
0
 40
0
 40
0
 40
0
 40
1
 40
1
 40
1
 40
1
 10
31.423333
 20
222.028058
 30
0.0
 10
31.423333
 20
223.799002
 30
0.0
 10
32.604433
 20
224.979749
 30
0.0
 10
34.375378
 20
224.979749
 30
0.0
  0
SPLINE
  5
1c5
100
AcDbEntity
  8
text
 62
1
100
AcDbSpline
 70
8
 71
3
 72
8
 73
4
 74
0
 40
0
 40
0
 40
0
 40
0
 40
1
 40
1
 40
1
 40
1
 10
34.375378
 20
224.979749
 30
0.0
 10
36.147381
 20
224.979749
 30
0.0
 10
37.327070
 20
223.799002
 30
0.0
 10
37.327070
 20
222.028058
 30
0.0
  0
SPLINE
  5
1c6
100
AcDbEntity
  8
text
 62
1
100
AcDbSpline
 70
8
 71
3
 72
8
 73
4
 74
0
 40
0
 40
0
 40
0
 40
0
 40
1
 40
1
 40
1
 40
1
 10
37.327070
 20
222.028058
 30
0.0
 10
37.327070
 20
220.257466
 30
0.0
 10
36.147381
 20
219.076366
 30
0.0
 10
34.375378
 20
219.076366
 30
0.0
  0
SPLINE
  5
1c7
100
AcDbEntity
  8
text
 62
1
100
AcDbSpline
 70
8
 71
3
 72
8
 73
4
 74
0
 40
0
 40
0
 40
0
 40
0
 40
1
 40
1
 40
1
 40
1
 10
34.375378
 20
219.076366
 30
0.0
 10
32.604433
 20
219.076366
 30
0.0
 10
31.423333
 20
220.257466
 30
0.0
 10
31.423333
 20
222.028058
 30
0.0
  0
LWPOLYLINE
  5
1c8
100
AcDbEntity
  8
text
 62
1
100
AcDbPolyline
 90
2
 70
0
 10
65.092075
 20
222.293155
 30
0.0
 10
70.557890
 20
222.293155
 30
0.0
  0
LWPOLYLINE
  5
1c9
100
AcDbEntity
  8
text
 62
1
100
AcDbPolyline
 90
2
 70
0
 10
33.195689
 20
222.028058
 30
0.0
 10
35.556125
 20
222.028058
 30
0.0
  0
SPLINE
  5
1ca
100
AcDbEntity
  8
text
 62
1
100
AcDbSpline
 70
8
 71
3
 72
8
 73
4
 74
0
 40
0
 40
0
 40
0
 40
0
 40
1
 40
1
 40
1
 40
1
 10
16.183333
 20
222.028058
 30
0.0
 10
16.183333
 20
223.799002
 30
0.0
 10
17.364433
 20
224.979749
 30
0.0
 10
19.135378
 20
224.979749
 30
0.0
  0
SPLINE
  5
1cb
100
AcDbEntity
  8
text
 62
1
100
AcDbSpline
 70
8
 71
3
 72
8
 73
4
 74
0
 40
0
 40
0
 40
0
 40
0
 40
1
 40
1
 40
1
 40
1
 10
19.135378
 20
224.979749
 30
0.0
 10
20.907381
 20
224.979749
 30
0.0
 10
22.087070
 20
223.799002
 30
0.0
 10
22.087070
 20
222.028058
 30
0.0
  0
SPLINE
  5
1cc
100
AcDbEntity
  8
text
 62
1
100
AcDbSpline
 70
8
 71
3
 72
8
 73
4
 74
0
 40
0
 40
0
 40
0
 40
0
 40
1
 40
1
 40
1
 40
1
 10
22.087070
 20
222.028058
 30
0.0
 10
22.087070
 20
220.257466
 30
0.0
 10
20.907381
 20
219.076366
 30
0.0
 10
19.135378
 20
219.076366
 30
0.0
  0
SPLINE
  5
1cd
100
AcDbEntity
  8
text
 62
1
100
AcDbSpline
 70
8
 71
3
 72
8
 73
4
 74
0
 40
0
 40
0
 40
0
 40
0
 40
1
 40
1
 40
1
 40
1
 10
19.135378
 20
219.076366
 30
0.0
 10
17.364433
 20
219.076366
 30
0.0
 10
16.183333
 20
220.257466
 30
0.0
 10
16.183333
 20
222.028058
 30
0.0
  0
LWPOLYLINE
  5
1ce
100
AcDbEntity
  8
text
 62
1
100
AcDbPolyline
 90
2
 70
0
 10
34.375378
 20
220.847310
 30
0.0
 10
34.375378
 20
223.209158
 30
0.0
  0
LWPOLYLINE
  5
1cf
100
AcDbEntity
  8
text
 62
1
100
AcDbPolyline
 90
2
 70
0
 10
17.955689
 20
222.028058
 30
0.0
 10
20.316125
 20
222.028058
 30
0.0
  0
SPLINE
  5
1d0
100
AcDbEntity
  8
text
 62
1
100
AcDbSpline
 70
8
 71
3
 72
8
 73
4
 74
0
 40
0
 40
0
 40
0
 40
0
 40
1
 40
1
 40
1
 40
1
 10
31.423333
 20
209.610280
 30
0.0
 10
31.423333
 20
211.381224
 30
0.0
 10
32.604433
 20
212.561972
 30
0.0
 10
34.375378
 20
212.561972
 30
0.0
  0
SPLINE
  5
1d1
100
AcDbEntity
  8
text
 62
1
100
AcDbSpline
 70
8
 71
3
 72
8
 73
4
 74
0
 40
0
 40
0
 40
0
 40
0
 40
1
 40
1
 40
1
 40
1
 10
34.375378
 20
212.561972
 30
0.0
 10
36.147381
 20
212.561972
 30
0.0
 10
37.327070
 20
211.381224
 30
0.0
 10
37.327070
 20
209.610280
 30
0.0
  0
SPLINE
  5
1d2
100
AcDbEntity
  8
text
 62
1
100
AcDbSpline
 70
8
 71
3
 72
8
 73
4
 74
0
 40
0
 40
0
 40
0
 40
0
 40
1
 40
1
 40
1
 40
1
 10
37.327070
 20
209.610280
 30
0.0
 10
37.327070
 20
207.839688
 30
0.0
 10
36.147381
 20
206.658588
 30
0.0
 10
34.375378
 20
206.658588
 30
0.0
  0
SPLINE
  5
1d3
100
AcDbEntity
  8
text
 62
1
100
AcDbSpline
 70
8
 71
3
 72
8
 73
4
 74
0
 40
0
 40
0
 40
0
 40
0
 40
1
 40
1
 40
1
 40
1
 10
34.375378
 20
206.658588
 30
0.0
 10
32.604433
 20
206.658588
 30
0.0
 10
31.423333
 20
207.839688
 30
0.0
 10
31.423333
 20
209.610280
 30
0.0
  0
LWPOLYLINE
  5
1d4
100
AcDbEntity
  8
text
 62
1
100
AcDbPolyline
 90
2
 70
0
 10
19.135378
 20
220.847310
 30
0.0
 10
19.135378
 20
223.209158
 30
0.0
  0
LWPOLYLINE
  5
1d5
100
AcDbEntity
  8
text
 62
1
100
AcDbPolyline
 90
2
 70
0
 10
33.195689
 20
209.610280
 30
0.0
 10
35.556125
 20
209.610280
 30
0.0
  0
SPLINE
  5
1d6
100
AcDbEntity
  8
text
 62
1
100
AcDbSpline
 70
8
 71
3
 72
8
 73
4
 74
0
 40
0
 40
0
 40
0
 40
0
 40
1
 40
1
 40
1
 40
1
 10
16.183333
 20
209.610280
 30
0.0
 10
16.183333
 20
211.381224
 30
0.0
 10
17.364433
 20
212.561972
 30
0.0
 10
19.135378
 20
212.561972
 30
0.0
  0
SPLINE
  5
1d7
100
AcDbEntity
  8
text
 62
1
100
AcDbSpline
 70
8
 71
3
 72
8
 73
4
 74
0
 40
0
 40
0
 40
0
 40
0
 40
1
 40
1
 40
1
 40
1
 10
19.135378
 20
212.561972
 30
0.0
 10
20.907381
 20
212.561972
 30
0.0
 10
22.087070
 20
211.381224
 30
0.0
 10
22.087070
 20
209.610280
 30
0.0
  0
SPLINE
  5
1d8
100
AcDbEntity
  8
text
 62
1
100
AcDbSpline
 70
8
 71
3
 72
8
 73
4
 74
0
 40
0
 40
0
 40
0
 40
0
 40
1
 40
1
 40
1
 40
1
 10
22.087070
 20
209.610280
 30
0.0
 10
22.087070
 20
207.839688
 30
0.0
 10
20.907381
 20
206.658588
 30
0.0
 10
19.135378
 20
206.658588
 30
0.0
  0
SPLINE
  5
1d9
100
AcDbEntity
  8
text
 62
1
100
AcDbSpline
 70
8
 71
3
 72
8
 73
4
 74
0
 40
0
 40
0
 40
0
 40
0
 40
1
 40
1
 40
1
 40
1
 10
19.135378
 20
206.658588
 30
0.0
 10
17.364433
 20
206.658588
 30
0.0
 10
16.183333
 20
207.839688
 30
0.0
 10
16.183333
 20
209.610280
 30
0.0
  0
LWPOLYLINE
  5
1da
100
AcDbEntity
  8
text
 62
1
100
AcDbPolyline
 90
2
 70
0
 10
34.375378
 20
208.429533
 30
0.0
 10
34.375378
 20
210.791380
 30
0.0
  0
LWPOLYLINE
  5
1db
100
AcDbEntity
  8
text
 62
1
100
AcDbPolyline
 90
2
 70
0
 10
17.955689
 20
209.610280
 30
0.0
 10
20.316125
 20
209.610280
 30
0.0
  0
SPLINE
  5
1dc
100
AcDbEntity
  8
text
 62
1
100
AcDbSpline
 70
8
 71
3
 72
8
 73
4
 74
0
 40
0
 40
0
 40
0
 40
0
 40
1
 40
1
 40
1
 40
1
 10
46.663333
 20
209.610280
 30
0.0
 10
46.663333
 20
211.381224
 30
0.0
 10
47.844433
 20
212.561972
 30
0.0
 10
49.615378
 20
212.561972
 30
0.0
  0
SPLINE
  5
1dd
100
AcDbEntity
  8
text
 62
1
100
AcDbSpline
 70
8
 71
3
 72
8
 73
4
 74
0
 40
0
 40
0
 40
0
 40
0
 40
1
 40
1
 40
1
 40
1
 10
49.615378
 20
212.561972
 30
0.0
 10
51.387381
 20
212.561972
 30
0.0
 10
52.567070
 20
211.381224
 30
0.0
 10
52.567070
 20
209.610280
 30
0.0
  0
SPLINE
  5
1de
100
AcDbEntity
  8
text
 62
1
100
AcDbSpline
 70
8
 71
3
 72
8
 73
4
 74
0
 40
0
 40
0
 40
0
 40
0
 40
1
 40
1
 40
1
 40
1
 10
52.567070
 20
209.610280
 30
0.0
 10
52.567070
 20
207.839688
 30
0.0
 10
51.387381
 20
206.658588
 30
0.0
 10
49.615378
 20
206.658588
 30
0.0
  0
SPLINE
  5
1df
100
AcDbEntity
  8
text
 62
1
100
AcDbSpline
 70
8
 71
3
 72
8
 73
4
 74
0
 40
0
 40
0
 40
0
 40
0
 40
1
 40
1
 40
1
 40
1
 10
49.615378
 20
206.658588
 30
0.0
 10
47.844433
 20
206.658588
 30
0.0
 10
46.663333
 20
207.839688
 30
0.0
 10
46.663333
 20
209.610280
 30
0.0
  0
LWPOLYLINE
  5
1e0
100
AcDbEntity
  8
text
 62
1
100
AcDbPolyline
 90
2
 70
0
 10
19.135378
 20
208.429533
 30
0.0
 10
19.135378
 20
210.791380
 30
0.0
  0
LWPOLYLINE
  5
1e1
100
AcDbEntity
  8
text
 62
1
100
AcDbPolyline
 90
2
 70
0
 10
48.435689
 20
209.610280
 30
0.0
 10
50.796125
 20
209.610280
 30
0.0
  0
LWPOLYLINE
  5
1e2
100
AcDbEntity
  8
text
 62
1
100
AcDbPolyline
 90
2
 70
0
 10
49.615378
 20
208.429533
 30
0.0
 10
49.615378
 20
210.791380
 30
0.0
  0
LWPOLYLINE
  5
1e3
100
AcDbEntity
  8
text
 62
1
100
AcDbPolyline
 90
2
 70
0
 10
56.418824
 20
207.053155
 30
0.0
 10
61.884639
 20
207.053155
 30
0.0
  0
LWPOLYLINE
  5
1e4
100
AcDbEntity
  8
text
 62
1
100
AcDbPolyline
 90
2
 70
0
 10
61.616093
 20
207.142469
 30
0.0
 10
61.616093
 20
212.608284
 30
0.0
  0
SPLINE
  5
1e5
100
AcDbEntity
  8
text
 62
1
100
AcDbSpline
 70
8
 71
3
 72
8
 73
4
 74
0
 40
0
 40
0
 40
0
 40
0
 40
1
 40
1
 40
1
 40
1
 10
16.183333
 20
185.339169
 30
0.0
 10
16.183333
 20
187.110113
 30
0.0
 10
17.364433
 20
188.290860
 30
0.0
 10
19.135378
 20
188.290860
 30
0.0
  0
SPLINE
  5
1e6
100
AcDbEntity
  8
text
 62
1
100
AcDbSpline
 70
8
 71
3
 72
8
 73
4
 74
0
 40
0
 40
0
 40
0
 40
0
 40
1
 40
1
 40
1
 40
1
 10
19.135378
 20
188.290860
 30
0.0
 10
20.907381
 20
188.290860
 30
0.0
 10
22.087070
 20
187.110113
 30
0.0
 10
22.087070
 20
185.339169
 30
0.0
  0
SPLINE
  5
1e7
100
AcDbEntity
  8
text
 62
1
100
AcDbSpline
 70
8
 71
3
 72
8
 73
4
 74
0
 40
0
 40
0
 40
0
 40
0
 40
1
 40
1
 40
1
 40
1
 10
22.087070
 20
185.339169
 30
0.0
 10
22.087070
 20
183.568577
 30
0.0
 10
20.907381
 20
182.387477
 30
0.0
 10
19.135378
 20
182.387477
 30
0.0
  0
SPLINE
  5
1e8
100
AcDbEntity
  8
text
 62
1
100
AcDbSpline
 70
8
 71
3
 72
8
 73
4
 74
0
 40
0
 40
0
 40
0
 40
0
 40
1
 40
1
 40
1
 40
1
 10
19.135378
 20
182.387477
 30
0.0
 10
17.364433
 20
182.387477
 30
0.0
 10
16.183333
 20
183.568577
 30
0.0
 10
16.183333
 20
185.339169
 30
0.0
  0
LWPOLYLINE
  5
1e9
100
AcDbEntity
  8
text
 62
1
100
AcDbPolyline
 90
2
 70
0
 10
61.347545
 20
212.626027
 30
0.0
 10
66.813359
 20
212.626027
 30
0.0
  0
LWPOLYLINE
  5
1ea
100
AcDbEntity
  8
text
 62
1
100
AcDbPolyline
 90
2
 70
0
 10
17.955689
 20
185.339169
 30
0.0
 10
20.316125
 20
185.339169
 30
0.0
  0
SPLINE
  5
1eb
100
AcDbEntity
  8
text
 62
1
100
AcDbSpline
 70
8
 71
3
 72
8
 73
4
 74
0
 40
0
 40
0
 40
0
 40
0
 40
1
 40
1
 40
1
 40
1
 10
52.307778
 20
171.228058
 30
0.0
 10
52.307778
 20
172.999002
 30
0.0
 10
53.488878
 20
174.179749
 30
0.0
 10
55.259822
 20
174.179749
 30
0.0
  0
SPLINE
  5
1ec
100
AcDbEntity
  8
text
 62
1
100
AcDbSpline
 70
8
 71
3
 72
8
 73
4
 74
0
 40
0
 40
0
 40
0
 40
0
 40
1
 40
1
 40
1
 40
1
 10
55.259822
 20
174.179749
 30
0.0
 10
57.031825
 20
174.179749
 30
0.0
 10
58.211514
 20
172.999002
 30
0.0
 10
58.211514
 20
171.228058
 30
0.0
  0
SPLINE
  5
1ed
100
AcDbEntity
  8
text
 62
1
100
AcDbSpline
 70
8
 71
3
 72
8
 73
4
 74
0
 40
0
 40
0
 40
0
 40
0
 40
1
 40
1
 40
1
 40
1
 10
58.211514
 20
171.228058
 30
0.0
 10
58.211514
 20
169.457466
 30
0.0
 10
57.031825
 20
168.276366
 30
0.0
 10
55.259822
 20
168.276366
 30
0.0
  0
SPLINE
  5
1ee
100
AcDbEntity
  8
text
 62
1
100
AcDbSpline
 70
8
 71
3
 72
8
 73
4
 74
0
 40
0
 40
0
 40
0
 40
0
 40
1
 40
1
 40
1
 40
1
 10
55.259822
 20
168.276366
 30
0.0
 10
53.488878
 20
168.276366
 30
0.0
 10
52.307778
 20
169.457466
 30
0.0
 10
52.307778
 20
171.228058
 30
0.0
  0
LWPOLYLINE
  5
1ef
100
AcDbEntity
  8
text
 62
1
100
AcDbPolyline
 90
2
 70
0
 10
19.135378
 20
184.158422
 30
0.0
 10
19.135378
 20
186.520269
 30
0.0
  0
LWPOLYLINE
  5
1f0
100
AcDbEntity
  8
text
 62
1
100
AcDbPolyline
 90
2
 70
0
 10
54.080133
 20
171.228058
 30
0.0
 10
56.440570
 20
171.228058
 30
0.0
  0
SPLINE
  5
1f1
100
AcDbEntity
  8
text
 62
1
100
AcDbSpline
 70
8
 71
3
 72
8
 73
4
 74
0
 40
0
 40
0
 40
0
 40
0
 40
1
 40
1
 40
1
 40
1
 10
52.307778
 20
158.810280
 30
0.0
 10
52.307778
 20
160.581224
 30
0.0
 10
53.488878
 20
161.761972
 30
0.0
 10
55.259822
 20
161.761972
 30
0.0
  0
SPLINE
  5
1f2
100
AcDbEntity
  8
text
 62
1
100
AcDbSpline
 70
8
 71
3
 72
8
 73
4
 74
0
 40
0
 40
0
 40
0
 40
0
 40
1
 40
1
 40
1
 40
1
 10
55.259822
 20
161.761972
 30
0.0
 10
57.031825
 20
161.761972
 30
0.0
 10
58.211514
 20
160.581224
 30
0.0
 10
58.211514
 20
158.810280
 30
0.0
  0
SPLINE
  5
1f3
100
AcDbEntity
  8
text
 62
1
100
AcDbSpline
 70
8
 71
3
 72
8
 73
4
 74
0
 40
0
 40
0
 40
0
 40
0
 40
1
 40
1
 40
1
 40
1
 10
58.211514
 20
158.810280
 30
0.0
 10
58.211514
 20
157.039688
 30
0.0
 10
57.031825
 20
155.858588
 30
0.0
 10
55.259822
 20
155.858588
 30
0.0
  0
SPLINE
  5
1f4
100
AcDbEntity
  8
text
 62
1
100
AcDbSpline
 70
8
 71
3
 72
8
 73
4
 74
0
 40
0
 40
0
 40
0
 40
0
 40
1
 40
1
 40
1
 40
1
 10
55.259822
 20
155.858588
 30
0.0
 10
53.488878
 20
155.858588
 30
0.0
 10
52.307778
 20
157.039688
 30
0.0
 10
52.307778
 20
158.810280
 30
0.0
  0
LWPOLYLINE
  5
1f5
100
AcDbEntity
  8
text
 62
1
100
AcDbPolyline
 90
2
 70
0
 10
55.259822
 20
170.047310
 30
0.0
 10
55.259822
 20
172.409158
 30
0.0
  0
LWPOLYLINE
  5
1f6
100
AcDbEntity
  8
text
 62
1
100
AcDbPolyline
 90
2
 70
0
 10
54.080133
 20
158.810280
 30
0.0
 10
56.440570
 20
158.810280
 30
0.0
  0
SPLINE
  5
1f7
100
AcDbEntity
  8
text
 62
1
100
AcDbSpline
 70
8
 71
3
 72
8
 73
4
 74
0
 40
0
 40
0
 40
0
 40
0
 40
1
 40
1
 40
1
 40
1
 10
71.498889
 20
244.605835
 30
0.0
 10
71.498889
 20
246.376780
 30
0.0
 10
72.679989
 20
247.557527
 30
0.0
 10
74.450933
 20
247.557527
 30
0.0
  0
SPLINE
  5
1f8
100
AcDbEntity
  8
text
 62
1
100
AcDbSpline
 70
8
 71
3
 72
8
 73
4
 74
0
 40
0
 40
0
 40
0
 40
0
 40
1
 40
1
 40
1
 40
1
 10
74.450933
 20
247.557527
 30
0.0
 10
76.222936
 20
247.557527
 30
0.0
 10
77.402625
 20
246.376780
 30
0.0
 10
77.402625
 20
244.605835
 30
0.0
  0
SPLINE
  5
1f9
100
AcDbEntity
  8
text
 62
1
100
AcDbSpline
 70
8
 71
3
 72
8
 73
4
 74
0
 40
0
 40
0
 40
0
 40
0
 40
1
 40
1
 40
1
 40
1
 10
77.402625
 20
244.605835
 30
0.0
 10
77.402625
 20
242.835244
 30
0.0
 10
76.222936
 20
241.654144
 30
0.0
 10
74.450933
 20
241.654144
 30
0.0
  0
SPLINE
  5
1fa
100
AcDbEntity
  8
text
 62
1
100
AcDbSpline
 70
8
 71
3
 72
8
 73
4
 74
0
 40
0
 40
0
 40
0
 40
0
 40
1
 40
1
 40
1
 40
1
 10
74.450933
 20
241.654144
 30
0.0
 10
72.679989
 20
241.654144
 30
0.0
 10
71.498889
 20
242.835244
 30
0.0
 10
71.498889
 20
244.605835
 30
0.0
  0
LWPOLYLINE
  5
1fb
100
AcDbEntity
  8
text
 62
1
100
AcDbPolyline
 90
2
 70
0
 10
55.259822
 20
157.629533
 30
0.0
 10
55.259822
 20
159.991380
 30
0.0
  0
LWPOLYLINE
  5
1fc
100
AcDbEntity
  8
text
 62
1
100
AcDbPolyline
 90
2
 70
0
 10
73.271245
 20
244.605835
 30
0.0
 10
75.631681
 20
244.605835
 30
0.0
  0
SPLINE
  5
1fd
100
AcDbEntity
  8
text
 62
1
100
AcDbSpline
 70
8
 71
3
 72
8
 73
4
 74
0
 40
0
 40
0
 40
0
 40
0
 40
1
 40
1
 40
1
 40
1
 10
59.645556
 20
244.605835
 30
0.0
 10
59.645556
 20
246.376780
 30
0.0
 10
60.826656
 20
247.557527
 30
0.0
 10
62.597600
 20
247.557527
 30
0.0
  0
SPLINE
  5
1fe
100
AcDbEntity
  8
text
 62
1
100
AcDbSpline
 70
8
 71
3
 72
8
 73
4
 74
0
 40
0
 40
0
 40
0
 40
0
 40
1
 40
1
 40
1
 40
1
 10
62.597600
 20
247.557527
 30
0.0
 10
64.369603
 20
247.557527
 30
0.0
 10
65.549292
 20
246.376780
 30
0.0
 10
65.549292
 20
244.605835
 30
0.0
  0
SPLINE
  5
1ff
100
AcDbEntity
  8
text
 62
1
100
AcDbSpline
 70
8
 71
3
 72
8
 73
4
 74
0
 40
0
 40
0
 40
0
 40
0
 40
1
 40
1
 40
1
 40
1
 10
65.549292
 20
244.605835
 30
0.0
 10
65.549292
 20
242.835244
 30
0.0
 10
64.369603
 20
241.654144
 30
0.0
 10
62.597600
 20
241.654144
 30
0.0
  0
SPLINE
  5
200
100
AcDbEntity
  8
text
 62
1
100
AcDbSpline
 70
8
 71
3
 72
8
 73
4
 74
0
 40
0
 40
0
 40
0
 40
0
 40
1
 40
1
 40
1
 40
1
 10
62.597600
 20
241.654144
 30
0.0
 10
60.826656
 20
241.654144
 30
0.0
 10
59.645556
 20
242.835244
 30
0.0
 10
59.645556
 20
244.605835
 30
0.0
  0
LWPOLYLINE
  5
201
100
AcDbEntity
  8
text
 62
1
100
AcDbPolyline
 90
2
 70
0
 10
74.450933
 20
243.425088
 30
0.0
 10
74.450933
 20
245.786935
 30
0.0
  0
LWPOLYLINE
  5
202
100
AcDbEntity
  8
text
 62
1
100
AcDbPolyline
 90
2
 70
0
 10
61.417911
 20
244.605835
 30
0.0
 10
63.778347
 20
244.605835
 30
0.0
  0
SPLINE
  5
203
100
AcDbEntity
  8
text
 62
1
100
AcDbSpline
 70
8
 71
3
 72
8
 73
4
 74
0
 40
0
 40
0
 40
0
 40
0
 40
1
 40
1
 40
1
 40
1
 10
47.792222
 20
244.605835
 30
0.0
 10
47.792222
 20
246.376780
 30
0.0
 10
48.973322
 20
247.557527
 30
0.0
 10
50.744267
 20
247.557527
 30
0.0
  0
SPLINE
  5
204
100
AcDbEntity
  8
text
 62
1
100
AcDbSpline
 70
8
 71
3
 72
8
 73
4
 74
0
 40
0
 40
0
 40
0
 40
0
 40
1
 40
1
 40
1
 40
1
 10
50.744267
 20
247.557527
 30
0.0
 10
52.516270
 20
247.557527
 30
0.0
 10
53.695958
 20
246.376780
 30
0.0
 10
53.695958
 20
244.605835
 30
0.0
  0
SPLINE
  5
205
100
AcDbEntity
  8
text
 62
1
100
AcDbSpline
 70
8
 71
3
 72
8
 73
4
 74
0
 40
0
 40
0
 40
0
 40
0
 40
1
 40
1
 40
1
 40
1
 10
53.695958
 20
244.605835
 30
0.0
 10
53.695958
 20
242.835244
 30
0.0
 10
52.516270
 20
241.654144
 30
0.0
 10
50.744267
 20
241.654144
 30
0.0
  0
SPLINE
  5
206
100
AcDbEntity
  8
text
 62
1
100
AcDbSpline
 70
8
 71
3
 72
8
 73
4
 74
0
 40
0
 40
0
 40
0
 40
0
 40
1
 40
1
 40
1
 40
1
 10
50.744267
 20
241.654144
 30
0.0
 10
48.973322
 20
241.654144
 30
0.0
 10
47.792222
 20
242.835244
 30
0.0
 10
47.792222
 20
244.605835
 30
0.0
  0
LWPOLYLINE
  5
207
100
AcDbEntity
  8
text
 62
1
100
AcDbPolyline
 90
2
 70
0
 10
62.597600
 20
243.425088
 30
0.0
 10
62.597600
 20
245.786935
 30
0.0
  0
LWPOLYLINE
  5
208
100
AcDbEntity
  8
text
 62
1
100
AcDbPolyline
 90
2
 70
0
 10
49.564578
 20
244.605835
 30
0.0
 10
51.925014
 20
244.605835
 30
0.0
  0
SPLINE
  5
209
100
AcDbEntity
  8
text
 62
1
100
AcDbSpline
 70
8
 71
3
 72
8
 73
4
 74
0
 40
0
 40
0
 40
0
 40
0
 40
1
 40
1
 40
1
 40
1
 10
31.423333
 20
185.339169
 30
0.0
 10
31.423333
 20
187.110113
 30
0.0
 10
32.604433
 20
188.290860
 30
0.0
 10
34.375378
 20
188.290860
 30
0.0
  0
SPLINE
  5
20a
100
AcDbEntity
  8
text
 62
1
100
AcDbSpline
 70
8
 71
3
 72
8
 73
4
 74
0
 40
0
 40
0
 40
0
 40
0
 40
1
 40
1
 40
1
 40
1
 10
34.375378
 20
188.290860
 30
0.0
 10
36.147381
 20
188.290860
 30
0.0
 10
37.327070
 20
187.110113
 30
0.0
 10
37.327070
 20
185.339169
 30
0.0
  0
SPLINE
  5
20b
100
AcDbEntity
  8
text
 62
1
100
AcDbSpline
 70
8
 71
3
 72
8
 73
4
 74
0
 40
0
 40
0
 40
0
 40
0
 40
1
 40
1
 40
1
 40
1
 10
37.327070
 20
185.339169
 30
0.0
 10
37.327070
 20
183.568577
 30
0.0
 10
36.147381
 20
182.387477
 30
0.0
 10
34.375378
 20
182.387477
 30
0.0
  0
SPLINE
  5
20c
100
AcDbEntity
  8
text
 62
1
100
AcDbSpline
 70
8
 71
3
 72
8
 73
4
 74
0
 40
0
 40
0
 40
0
 40
0
 40
1
 40
1
 40
1
 40
1
 10
34.375378
 20
182.387477
 30
0.0
 10
32.604433
 20
182.387477
 30
0.0
 10
31.423333
 20
183.568577
 30
0.0
 10
31.423333
 20
185.339169
 30
0.0
  0
LWPOLYLINE
  5
20d
100
AcDbEntity
  8
text
 62
1
100
AcDbPolyline
 90
2
 70
0
 10
50.744267
 20
243.425088
 30
0.0
 10
50.744267
 20
245.786935
 30
0.0
  0
LWPOLYLINE
  5
20e
100
AcDbEntity
  8
text
 62
1
100
AcDbPolyline
 90
2
 70
0
 10
33.195689
 20
185.339169
 30
0.0
 10
35.556125
 20
185.339169
 30
0.0
  0
SPLINE
  5
20f
100
AcDbEntity
  8
text
 62
1
100
AcDbSpline
 70
8
 71
3
 72
8
 73
4
 74
0
 40
0
 40
0
 40
0
 40
0
 40
1
 40
1
 40
1
 40
1
 10
16.183333
 20
185.339169
 30
0.0
 10
16.183333
 20
187.110113
 30
0.0
 10
17.364433
 20
188.290860
 30
0.0
 10
19.135378
 20
188.290860
 30
0.0
  0
SPLINE
  5
210
100
AcDbEntity
  8
text
 62
1
100
AcDbSpline
 70
8
 71
3
 72
8
 73
4
 74
0
 40
0
 40
0
 40
0
 40
0
 40
1
 40
1
 40
1
 40
1
 10
19.135378
 20
188.290860
 30
0.0
 10
20.907381
 20
188.290860
 30
0.0
 10
22.087070
 20
187.110113
 30
0.0
 10
22.087070
 20
185.339169
 30
0.0
  0
SPLINE
  5
211
100
AcDbEntity
  8
text
 62
1
100
AcDbSpline
 70
8
 71
3
 72
8
 73
4
 74
0
 40
0
 40
0
 40
0
 40
0
 40
1
 40
1
 40
1
 40
1
 10
22.087070
 20
185.339169
 30
0.0
 10
22.087070
 20
183.568577
 30
0.0
 10
20.907381
 20
182.387477
 30
0.0
 10
19.135378
 20
182.387477
 30
0.0
  0
SPLINE
  5
212
100
AcDbEntity
  8
text
 62
1
100
AcDbSpline
 70
8
 71
3
 72
8
 73
4
 74
0
 40
0
 40
0
 40
0
 40
0
 40
1
 40
1
 40
1
 40
1
 10
19.135378
 20
182.387477
 30
0.0
 10
17.364433
 20
182.387477
 30
0.0
 10
16.183333
 20
183.568577
 30
0.0
 10
16.183333
 20
185.339169
 30
0.0
  0
LWPOLYLINE
  5
213
100
AcDbEntity
  8
text
 62
1
100
AcDbPolyline
 90
2
 70
0
 10
34.375378
 20
184.158422
 30
0.0
 10
34.375378
 20
186.520269
 30
0.0
  0
LWPOLYLINE
  5
214
100
AcDbEntity
  8
text
 62
1
100
AcDbPolyline
 90
2
 70
0
 10
17.955689
 20
185.339169
 30
0.0
 10
20.316125
 20
185.339169
 30
0.0
  0
LWPOLYLINE
  5
215
100
AcDbEntity
  8
text
 62
1
100
AcDbPolyline
 90
2
 70
0
 10
19.135378
 20
184.158422
 30
0.0
 10
19.135378
 20
186.520269
 30
0.0
  0
ENDSEC
  0
SECTION
  2
OBJECTS
  0
DICTIONARY
  5
C
330
0
100
AcDbDictionary
  3
ACAD_GROUP
350
D
  3
ACAD_MLINESTYLE
350
17
  0
DICTIONARY
  5
D
330
C
100
AcDbDictionary
  0
DICTIONARY
  5
1A
330
C
100
AcDbDictionary
  0
DICTIONARY
  5
17
330
C
100
AcDbDictionary
  3
STANDARD
350
18
  0
DICTIONARY
  5
19
330
C
100
AcDbDictionary
  0
ENDSEC
  0
EOF
